<svg width="1067" height="383" viewBox="0 0 1067 383" fill="none" xmlns="http://www.w3.org/2000/svg">
<rect width="4.2071" height="26.4819" rx="2.10355" transform="matrix(-1 -8.81451e-08 -8.81451e-08 1 296.247 332.572)" fill="#F3A261"/>
<path d="M294.858 287.745L293.971 284.42L292.955 287.708L275.054 345.63L274.657 346.913H276H309.363H310.652L310.32 345.667L294.858 287.745Z" fill="#2A9D8E" stroke="#2A9D8E" stroke-width="1.98111"/>
<path d="M300.893 314.198L301.274 315.622V315.624L294.57 322.145V345.813H293.23V336.312L282.537 324.768L282.976 323.349L293.23 334.337V290.17L293.901 288L294.57 290.509V320.275L300.893 314.198Z" fill="#264653"/>
<rect width="4.2071" height="26.4819" rx="2.10355" transform="matrix(-1 -8.81451e-08 -8.81451e-08 1 23.2471 351.572)" fill="#F3A261"/>
<path d="M21.858 306.745L20.9706 303.42L19.9546 306.708L2.05361 364.63L1.65709 365.913H3H36.3628H37.6525L37.3199 364.667L21.858 306.745Z" fill="#2A9D8E" stroke="#2A9D8E" stroke-width="1.98111"/>
<path d="M27.8933 333.198L28.2742 334.622V334.624L21.5701 341.145V364.813H20.2297V355.312L9.53699 343.768L9.97604 342.349L20.2297 353.337V309.17L20.9011 307L21.5701 309.509V339.275L27.8933 333.198Z" fill="#264653"/>
<rect width="3.04254" height="19.2694" rx="1.52127" transform="matrix(-1 -8.81451e-08 -8.81451e-08 1 122.134 355.83)" fill="#F3A261"/>
<path d="M108.971 365.173L120.896 326.589L131.195 365.173H108.971Z" fill="#F3A261" stroke="#F3A261" stroke-width="1.43272"/>
<path d="M126.002 342.946L126.278 343.976V343.978L121.43 348.694V365.81H120.46V358.938L112.727 350.59L113.045 349.564L120.46 357.51V325.569L120.946 324L121.43 325.814V347.341L126.002 342.946Z" fill="#CD5237"/>
<rect width="5.60284" height="35.4847" rx="2.80142" transform="matrix(-1 -8.81451e-08 -8.81451e-08 1 953.028 347.614)" fill="#F3A261"/>
<path d="M928.788 364.819L950.747 293.768L969.714 364.819H928.788Z" fill="#F3A261" stroke="#F3A261" stroke-width="2.63836"/>
<path d="M960.152 323.889L960.659 325.786V325.789L951.731 334.473V365.993H949.946V353.339L935.706 337.966L936.29 336.076L949.946 350.71V291.89L950.84 289L951.731 292.341V331.983L960.152 323.889Z" fill="#CD5237"/>
<rect width="3.75704" height="23.7946" rx="1.87852" transform="matrix(-1 -8.81451e-08 -8.81451e-08 1 188.453 346.304)" fill="#F3A261"/>
<path d="M172.788 357.407L186.893 311.768L199.076 357.407H172.788Z" fill="#F3A261" stroke="#F3A261" stroke-width="2.63836"/>
<path d="M193.23 330.395L193.57 331.667V331.669L187.583 337.493V358.629H186.386V350.143L176.838 339.835L177.23 338.567L186.386 348.38V308.938L186.986 307L187.583 309.241V335.822L193.23 330.395Z" fill="#CD5237"/>
<rect width="3.75704" height="23.7946" rx="1.87852" transform="matrix(-1 -8.81451e-08 -8.81451e-08 1 683.453 353.304)" fill="#F3A261"/>
<path d="M667.788 364.407L681.893 318.768L694.076 364.407H667.788Z" fill="#F3A261" stroke="#F3A261" stroke-width="2.63836"/>
<path d="M688.23 337.395L688.57 338.667V338.669L682.583 344.493V365.629H681.386V357.143L671.838 346.835L672.23 345.567L681.386 355.38V315.938L681.986 314L682.583 316.241V342.822L688.23 337.395Z" fill="#CD5237"/>
<rect width="4.4151" height="27.9623" rx="2.20755" transform="matrix(-1 -8.81451e-08 -8.81451e-08 1 342.51 125.189)" fill="#F3A261"/>
<path d="M323.409 138.746L340.713 82.7569L355.659 138.746H323.409Z" fill="#F3A261" stroke="#F3A261" stroke-width="2.07906"/>
<path d="M348.124 106.493L348.524 107.988V107.99L341.488 114.833V139.671H340.081V129.7L328.86 117.586L329.321 116.096L340.081 127.628V81.2771L340.786 79L341.488 81.633V112.871L348.124 106.493Z" fill="#CD5237"/>
<rect width="3.89258" height="24.5022" rx="1.94629" transform="matrix(-1 -8.81451e-08 -8.81451e-08 1 863.457 359.766)" fill="#F3A261"/>
<path d="M862.448 318.764L861.627 315.688L860.687 318.729L844.124 372.321L843.757 373.509H845H875.869H877.062L876.754 372.356L862.448 318.764Z" fill="#E66F51" stroke="#E66F51" stroke-width="1.833"/>
<path d="M868.032 343.239L868.385 344.557V344.559L862.182 350.593V372.491H860.942V363.7L851.048 353.019L851.454 351.706L860.942 361.873V321.008L861.563 319L862.182 321.321V348.862L868.032 343.239Z" fill="#264653"/>
<rect width="4.2071" height="26.4819" rx="2.10355" transform="matrix(-1 -8.81451e-08 -8.81451e-08 1 749.247 346.572)" fill="#F3A261"/>
<path d="M747.858 301.745L746.971 298.42L745.955 301.708L728.054 359.63L727.657 360.913H729H762.363H763.652L763.32 359.667L747.858 301.745Z" fill="#2A9D8E" stroke="#2A9D8E" stroke-width="1.98111"/>
<path d="M753.893 328.198L754.274 329.622V329.624L747.57 336.145V359.813H746.23V350.312L735.537 338.768L735.976 337.349L746.23 348.337V304.17L746.901 302L747.57 304.509V334.275L753.893 328.198Z" fill="#264653"/>
<rect width="4.2071" height="26.4819" rx="2.10355" transform="matrix(-1 -8.81451e-08 -8.81451e-08 1 756.247 52.5721)" fill="#F3A261"/>
<path d="M754.858 7.74453L753.971 4.42007L752.955 7.70752L735.054 65.6297L734.657 66.9128H736H769.363H770.652L770.32 65.6667L754.858 7.74453Z" fill="#2A9D8E" stroke="#2A9D8E" stroke-width="1.98111"/>
<path d="M760.893 34.1978L761.274 35.6219V35.6242L754.57 42.1452V65.8131H753.23V56.3115L742.537 44.768L742.976 43.3485L753.23 54.3369V10.1698L753.901 8L754.57 10.509V40.2751L760.893 34.1978Z" fill="#264653"/>
<rect width="4.2071" height="26.4819" rx="2.10355" transform="matrix(-1 -8.81451e-08 -8.81451e-08 1 1051.25 344.572)" fill="#F3A261"/>
<path d="M1049.86 299.745L1048.97 296.42L1047.95 299.708L1030.05 357.63L1029.66 358.913H1031H1064.36H1065.65L1065.32 357.667L1049.86 299.745Z" fill="#2A9D8E" stroke="#2A9D8E" stroke-width="1.98111"/>
<path d="M1055.89 326.198L1056.27 327.622V327.624L1049.57 334.145V357.813H1048.23V348.312L1037.54 336.768L1037.98 335.349L1048.23 346.337V302.17L1048.9 300L1049.57 302.509V332.275L1055.89 326.198Z" fill="#264653"/>
<rect width="4.2071" height="26.4819" rx="2.10355" transform="matrix(-1 -8.81451e-08 -8.81451e-08 1 511.247 350.572)" fill="#F3A261"/>
<path d="M509.858 305.745L508.971 302.42L507.955 305.708L490.054 363.63L489.657 364.913H491H524.363H525.652L525.32 363.667L509.858 305.745Z" fill="#2A9D8E" stroke="#2A9D8E" stroke-width="1.98111"/>
<path d="M515.893 332.198L516.274 333.622V333.624L509.57 340.145V363.813H508.23V354.312L497.537 342.768L497.976 341.349L508.23 352.337V308.17L508.901 306L509.57 308.509V338.275L515.893 332.198Z" fill="#264653"/>
<rect width="5.86674" height="36.9286" rx="2.93337" transform="matrix(-1 -8.81451e-08 -8.81451e-08 1 369.817 338.44)" fill="#F3A261"/>
<path d="M368.297 276.644L367.06 272.008L365.643 276.592L340.68 357.364L340.127 359.153H342H388.524H390.322L389.859 357.416L368.297 276.644Z" fill="#E66F51" stroke="#E66F51" stroke-width="2.76263"/>
<path d="M376.713 313.532L377.245 315.518V315.522L367.896 324.615V357.62H366.027V344.37L351.116 328.272L351.728 326.293L366.027 341.616V280.026L366.963 277L367.896 280.499V322.007L376.713 313.532Z" fill="#264653"/>
<rect width="4.10622" height="25.8469" rx="2.05311" transform="matrix(-1 -8.81451e-08 -8.81451e-08 1 322.47 225.003)" fill="#F3A261"/>
<path d="M321.406 181.751L320.54 178.506L319.548 181.715L302.076 238.248L301.689 239.5H303H335.563H336.822L336.497 238.284L321.406 181.751Z" fill="#E66F51" stroke="#E66F51" stroke-width="1.9336"/>
<path d="M327.296 207.57L327.668 208.96V208.962L321.125 215.326V238.427H319.817V229.153L309.38 217.886L309.809 216.501L319.817 227.226V184.118L320.472 182L321.125 184.449V213.501L327.296 207.57Z" fill="#264653"/>
<rect width="3.89258" height="24.5022" rx="1.94629" transform="matrix(-1 -8.81451e-08 -8.81451e-08 1 609.457 350.766)" fill="#F3A261"/>
<path d="M608.448 309.764L607.627 306.688L606.687 309.729L590.124 363.321L589.757 364.509H591H621.869H623.062L622.754 363.356L608.448 309.764Z" fill="#E66F51" stroke="#E66F51" stroke-width="1.833"/>
<path d="M614.032 334.239L614.385 335.557V335.559L608.182 341.593V363.491H606.942V354.7L597.048 344.019L597.454 342.706L606.942 352.873V312.008L607.563 310L608.182 312.321V339.862L614.032 334.239Z" fill="#264653"/>
<rect width="3.89258" height="24.5022" rx="1.94629" transform="matrix(-1 -8.81451e-08 -8.81451e-08 1 736.457 180.766)" fill="#F3A261"/>
<path d="M735.448 139.764L734.627 136.688L733.687 139.729L717.124 193.321L716.757 194.509H718H748.869H750.062L749.754 193.356L735.448 139.764Z" fill="#E66F51" stroke="#E66F51" stroke-width="1.833"/>
<path d="M741.032 164.239L741.385 165.557V165.559L735.182 171.593V193.491H733.942V184.7L724.048 174.019L724.454 172.706L733.942 182.873V142.008L734.563 140L735.182 142.321V169.862L741.032 164.239Z" fill="#264653"/>
<path d="M654.204 320.797L678.541 320.761H680.725L700.305 320.734C702.238 318.844 703.647 316.485 704.394 313.886C705.14 311.288 705.199 308.541 704.563 305.913C703.927 303.285 702.62 300.868 700.768 298.898C698.917 296.929 696.585 295.474 694.002 294.678C691.418 293.881 688.673 293.769 686.033 294.354C683.394 294.939 680.952 296.2 678.947 298.013C676.942 299.826 675.443 302.129 674.596 304.697C673.75 307.264 673.585 310.007 674.119 312.658C672.31 311.669 670.305 311.097 668.247 310.982C666.19 310.866 664.132 311.211 662.225 311.991C660.318 312.77 658.608 313.965 657.22 315.489C655.833 317.013 654.803 318.826 654.204 320.798V320.797Z" fill="#2A9D8E"/>
<path d="M489.331 293.985C495.581 293.985 500.647 284.586 500.647 272.992C500.647 261.399 495.581 252 489.331 252C483.081 252 478.015 261.399 478.015 272.992C478.015 284.586 483.081 293.985 489.331 293.985Z" fill="#2A9D8E"/>
<path d="M489.331 270.982V299.185" stroke="#F3A261" stroke-width="4.21903" stroke-miterlimit="10" stroke-linecap="round"/>
<path d="M338.649 292.232C348.397 292.232 356.299 284.345 356.299 274.616C356.299 264.887 348.397 257 338.649 257C328.902 257 321 264.887 321 274.616C321 284.345 328.902 292.232 338.649 292.232Z" fill="#E66F51"/>
<path d="M338.649 277.459V321.445" stroke="#F3A261" stroke-width="6.58023" stroke-miterlimit="10" stroke-linecap="round"/>
<path d="M220.449 377.076C228.43 377.076 234.899 368.329 234.899 357.538C234.899 346.748 228.43 338 220.449 338C212.469 338 206 346.748 206 357.538C206 368.329 212.469 377.076 220.449 377.076Z" fill="#CD5237"/>
<path d="M220.449 358.923V380" stroke="#E9C46B" stroke-width="3.73286" stroke-miterlimit="10" stroke-linecap="round"/>
<path d="M729.378 303.782C739.527 303.782 747.755 291.966 747.755 277.391C747.755 262.816 739.527 251 729.378 251C719.228 251 711 262.816 711 277.391C711 291.966 719.228 303.782 729.378 303.782Z" fill="#CD5237"/>
<path d="M729.378 275.814V307.833" stroke="#E9C46B" stroke-width="4.21903" stroke-miterlimit="10" stroke-linecap="round"/>
<path d="M800.159 369.82C807.979 369.82 814.318 361.353 814.318 350.91C814.318 340.466 807.979 332 800.159 332C792.339 332 786 340.466 786 350.91C786 361.353 792.339 369.82 800.159 369.82Z" fill="#2A9D8E"/>
<path d="M800.159 348.595V375.481" stroke="#F3A261" stroke-width="4.21903" stroke-miterlimit="10" stroke-linecap="round"/>
<path d="M551 378.09L579.22 378.049H581.752L604.457 378.017C606.699 375.826 608.333 373.09 609.199 370.077C610.064 367.064 610.132 363.878 609.395 360.831C608.658 357.784 607.141 354.982 604.994 352.698C602.847 350.414 600.144 348.727 597.148 347.803C594.153 346.879 590.969 346.75 587.908 347.428C584.848 348.106 582.016 349.568 579.691 351.67C577.366 353.773 575.628 356.444 574.646 359.421C573.665 362.398 573.474 365.579 574.092 368.652C571.996 367.506 569.67 366.843 567.284 366.709C564.898 366.575 562.513 366.975 560.301 367.879C558.089 368.783 556.107 370.169 554.498 371.936C552.889 373.702 551.694 375.805 551 378.092V378.09Z" fill="#2A9D8E"/>
<path d="M911.902 383.534L893.264 383.506H891.591L876.596 383.485C875.115 382.038 874.036 380.231 873.464 378.241C872.893 376.252 872.848 374.147 873.335 372.135C873.822 370.123 874.823 368.271 876.241 366.763C877.659 365.254 879.445 364.141 881.423 363.53C883.401 362.92 885.504 362.835 887.526 363.283C889.547 363.73 891.417 364.696 892.953 366.085C894.488 367.473 895.636 369.237 896.285 371.203C896.933 373.17 897.059 375.271 896.65 377.3C898.035 376.544 899.571 376.105 901.147 376.017C902.723 375.928 904.298 376.192 905.759 376.789C907.22 377.387 908.529 378.302 909.592 379.469C910.654 380.636 911.444 382.025 911.902 383.535V383.534Z" fill="#2A9D8E"/>
<path d="M427 355.057L454.773 355.016H457.265L479.609 354.985C481.816 352.829 483.424 350.136 484.276 347.171C485.128 344.206 485.194 341.07 484.469 338.072C483.743 335.073 482.251 332.315 480.138 330.067C478.025 327.819 475.364 326.159 472.416 325.25C469.468 324.341 466.335 324.214 463.323 324.881C460.311 325.548 457.524 326.987 455.236 329.056C452.948 331.125 451.237 333.754 450.271 336.684C449.305 339.613 449.117 342.744 449.726 345.768C447.663 344.641 445.374 343.987 443.026 343.856C440.678 343.724 438.33 344.117 436.153 345.007C433.977 345.897 432.026 347.261 430.442 349C428.859 350.738 427.683 352.808 427 355.059V355.057Z" fill="#2A9D8E"/>
</svg>
