<svg width="1067" height="383" viewBox="0 0 1067 383" fill="none" xmlns="http://www.w3.org/2000/svg">
<rect width="4.2071" height="26.4819" rx="2.10355" transform="matrix(-1 -8.81451e-08 -8.81451e-08 1 296.247 332.572)" fill="#F3A261"/>
<path d="M294.858 287.745L293.971 284.42L292.955 287.708L275.054 345.63L274.657 346.913H276H309.363H310.652L310.32 345.667L294.858 287.745Z" fill="#2A9D8E" stroke="#2A9D8E" stroke-width="1.98111"/>
<path d="M300.893 314.198L301.274 315.622V315.624L294.57 322.145V345.813H293.23V336.312L282.537 324.768L282.976 323.349L293.23 334.337V290.17L293.901 288L294.57 290.509V320.275L300.893 314.198Z" fill="#264653"/>
<rect width="4.2071" height="26.4819" rx="2.10355" transform="matrix(-1 -8.81451e-08 -8.81451e-08 1 896.247 107.572)" fill="#F3A261"/>
<path d="M894.858 62.7445L893.971 59.4201L892.955 62.7075L875.054 120.63L874.657 121.913H876H909.363H910.652L910.32 120.667L894.858 62.7445Z" fill="#2A9D8E" stroke="#2A9D8E" stroke-width="1.98111"/>
<path d="M900.893 89.1978L901.274 90.6219V90.6242L894.57 97.1452V120.813H893.23V111.312L882.537 99.768L882.976 98.3485L893.23 109.337V65.1698L893.901 63L894.57 65.509V95.2751L900.893 89.1978Z" fill="#264653"/>
<rect width="4.2071" height="26.4819" rx="2.10355" transform="matrix(-1 -8.81451e-08 -8.81451e-08 1 23.2471 351.572)" fill="#F3A261"/>
<path d="M21.858 306.745L20.9706 303.42L19.9546 306.708L2.05361 364.63L1.65709 365.913H3H36.3628H37.6525L37.3199 364.667L21.858 306.745Z" fill="#2A9D8E" stroke="#2A9D8E" stroke-width="1.98111"/>
<path d="M27.8933 333.198L28.2742 334.622V334.624L21.5701 341.145V364.813H20.2297V355.312L9.53699 343.768L9.97604 342.349L20.2297 353.337V309.17L20.9011 307L21.5701 309.509V339.275L27.8933 333.198Z" fill="#264653"/>
<rect width="4.2071" height="26.4819" rx="2.10355" transform="matrix(-1 -8.81451e-08 -8.81451e-08 1 923.247 205.572)" fill="#F3A261"/>
<path d="M921.858 160.745L920.971 157.42L919.955 160.708L902.054 218.63L901.657 219.913H903H936.363H937.652L937.32 218.667L921.858 160.745Z" fill="#2A9D8E" stroke="#2A9D8E" stroke-width="1.98111"/>
<path d="M927.893 187.198L928.274 188.622V188.624L921.57 195.145V218.813H920.23V209.312L909.537 197.768L909.976 196.349L920.23 207.337V163.17L920.901 161L921.57 163.509V193.275L927.893 187.198Z" fill="#264653"/>
<rect width="3.04254" height="19.2694" rx="1.52127" transform="matrix(-1 -8.81451e-08 -8.81451e-08 1 122.134 355.83)" fill="#F3A261"/>
<path d="M108.971 365.173L120.896 326.589L131.195 365.173H108.971Z" fill="#F3A261" stroke="#F3A261" stroke-width="1.43272"/>
<path d="M126.002 342.946L126.278 343.976V343.978L121.43 348.694V365.81H120.46V358.938L112.727 350.59L113.045 349.564L120.46 357.51V325.569L120.946 324L121.43 325.814V347.341L126.002 342.946Z" fill="#CD5237"/>
<rect width="5.60284" height="35.4847" rx="2.80142" transform="matrix(-1 -8.81451e-08 -8.81451e-08 1 953.028 347.614)" fill="#F3A261"/>
<path d="M928.788 364.819L950.747 293.768L969.714 364.819H928.788Z" fill="#F3A261" stroke="#F3A261" stroke-width="2.63836"/>
<path d="M960.152 323.889L960.659 325.786V325.789L951.731 334.473V365.993H949.946V353.339L935.706 337.966L936.29 336.076L949.946 350.71V291.89L950.84 289L951.731 292.341V331.983L960.152 323.889Z" fill="#CD5237"/>
<rect width="5.60284" height="35.4847" rx="2.80142" transform="matrix(-1 -8.81451e-08 -8.81451e-08 1 291.028 124.614)" fill="#F3A261"/>
<path d="M266.788 141.819L288.747 70.7676L307.714 141.819H266.788Z" fill="#F3A261" stroke="#F3A261" stroke-width="2.63836"/>
<path d="M298.152 100.889L298.659 102.786V102.789L289.731 111.473V142.993H287.946V130.339L273.706 114.966L274.29 113.076L287.946 127.71V68.8897L288.84 66L289.731 69.3414V108.983L298.152 100.889Z" fill="#CD5237"/>
<rect width="5.60284" height="35.4847" rx="2.80142" transform="matrix(-1 -8.81451e-08 -8.81451e-08 1 157.028 140.614)" fill="#F3A261"/>
<path d="M132.788 157.819L154.747 86.7676L173.714 157.819H132.788Z" fill="#F3A261" stroke="#F3A261" stroke-width="2.63836"/>
<path d="M164.152 116.889L164.659 118.786V118.789L155.731 127.473V158.993H153.946V146.339L139.706 130.966L140.29 129.076L153.946 143.71V84.8897L154.84 82L155.731 85.3414V124.983L164.152 116.889Z" fill="#CD5237"/>
<rect width="5.60284" height="35.4847" rx="2.80142" transform="matrix(-1 -8.81451e-08 -8.81451e-08 1 651.028 144.614)" fill="#F3A261"/>
<path d="M626.788 161.819L648.747 90.7676L667.714 161.819H626.788Z" fill="#F3A261" stroke="#F3A261" stroke-width="2.63836"/>
<path d="M658.152 120.889L658.659 122.786V122.789L649.731 131.473V162.993H647.946V150.339L633.706 134.966L634.29 133.076L647.946 147.71V88.8897L648.84 86L649.731 89.3414V128.983L658.152 120.889Z" fill="#CD5237"/>
<rect width="3.75704" height="23.7946" rx="1.87852" transform="matrix(-1 -8.81451e-08 -8.81451e-08 1 188.453 346.304)" fill="#F3A261"/>
<path d="M172.788 357.407L186.893 311.768L199.076 357.407H172.788Z" fill="#F3A261" stroke="#F3A261" stroke-width="2.63836"/>
<path d="M193.23 330.395L193.57 331.667V331.669L187.583 337.493V358.629H186.386V350.143L176.838 339.835L177.23 338.567L186.386 348.38V308.938L186.986 307L187.583 309.241V335.822L193.23 330.395Z" fill="#CD5237"/>
<rect width="3.75704" height="23.7946" rx="1.87852" transform="matrix(-1 -8.81451e-08 -8.81451e-08 1 683.453 353.304)" fill="#F3A261"/>
<path d="M667.788 364.407L681.893 318.768L694.076 364.407H667.788Z" fill="#F3A261" stroke="#F3A261" stroke-width="2.63836"/>
<path d="M688.23 337.395L688.57 338.667V338.669L682.583 344.493V365.629H681.386V357.143L671.838 346.835L672.23 345.567L681.386 355.38V315.938L681.986 314L682.583 316.241V342.822L688.23 337.395Z" fill="#CD5237"/>
<rect width="3.75704" height="23.7946" rx="1.87852" transform="matrix(-1 -8.81451e-08 -8.81451e-08 1 197.249 242.304)" fill="#F3A261"/>
<path d="M181.584 253.407L195.689 207.768L207.872 253.407H181.584Z" fill="#F3A261" stroke="#F3A261" stroke-width="2.63836"/>
<path d="M202.026 226.395L202.366 227.667V227.669L196.379 233.493V254.629H195.182V246.143L185.633 235.835L186.026 234.567L195.182 244.38V204.938L195.782 203L196.379 205.241V231.822L202.026 226.395Z" fill="#CD5237"/>
<rect width="4.4151" height="27.9623" rx="2.20755" transform="matrix(-1 -8.81451e-08 -8.81451e-08 1 342.51 125.189)" fill="#F3A261"/>
<path d="M323.409 138.746L340.713 82.7569L355.659 138.746H323.409Z" fill="#F3A261" stroke="#F3A261" stroke-width="2.07906"/>
<path d="M348.124 106.493L348.524 107.988V107.99L341.488 114.833V139.671H340.081V129.7L328.86 117.586L329.321 116.096L340.081 127.628V81.2771L340.786 79L341.488 81.633V112.871L348.124 106.493Z" fill="#CD5237"/>
<rect width="3.89258" height="24.5022" rx="1.94629" transform="matrix(-1 -8.81451e-08 -8.81451e-08 1 863.457 359.766)" fill="#F3A261"/>
<path d="M862.448 318.764L861.627 315.688L860.687 318.729L844.124 372.321L843.757 373.509H845H875.869H877.062L876.754 372.356L862.448 318.764Z" fill="#E66F51" stroke="#E66F51" stroke-width="1.833"/>
<path d="M868.032 343.239L868.385 344.557V344.559L862.182 350.593V372.491H860.942V363.7L851.048 353.019L851.454 351.706L860.942 361.873V321.008L861.563 319L862.182 321.321V348.862L868.032 343.239Z" fill="#264653"/>
<rect width="3.89258" height="24.5022" rx="1.94629" transform="matrix(-1 -8.81451e-08 -8.81451e-08 1 659.457 264.766)" fill="#F3A261"/>
<path d="M658.448 223.764L657.627 220.688L656.687 223.729L640.124 277.321L639.757 278.509H641H671.869H673.062L672.754 277.356L658.448 223.764Z" fill="#E66F51" stroke="#E66F51" stroke-width="1.833"/>
<path d="M664.032 248.239L664.385 249.557V249.559L658.182 255.593V277.491H656.942V268.7L647.048 258.019L647.454 256.706L656.942 266.873V226.008L657.563 224L658.182 226.321V253.862L664.032 248.239Z" fill="#264653"/>
<rect width="4.2071" height="26.4819" rx="2.10355" transform="matrix(-1 -8.81451e-08 -8.81451e-08 1 749.247 346.572)" fill="#F3A261"/>
<path d="M747.858 301.745L746.971 298.42L745.955 301.708L728.054 359.63L727.657 360.913H729H762.363H763.652L763.32 359.667L747.858 301.745Z" fill="#2A9D8E" stroke="#2A9D8E" stroke-width="1.98111"/>
<path d="M753.893 328.198L754.274 329.622V329.624L747.57 336.145V359.813H746.23V350.312L735.537 338.768L735.976 337.349L746.23 348.337V304.17L746.901 302L747.57 304.509V334.275L753.893 328.198Z" fill="#264653"/>
<rect width="4.2071" height="26.4819" rx="2.10355" transform="matrix(-1 -8.81451e-08 -8.81451e-08 1 545.247 251.572)" fill="#F3A261"/>
<path d="M543.858 206.745L542.971 203.42L541.955 206.708L524.054 264.63L523.657 265.913H525H558.363H559.652L559.32 264.667L543.858 206.745Z" fill="#2A9D8E" stroke="#2A9D8E" stroke-width="1.98111"/>
<path d="M549.893 233.198L550.274 234.622V234.624L543.57 241.145V264.813H542.23V255.312L531.537 243.768L531.976 242.349L542.23 253.337V209.17L542.901 207L543.57 209.509V239.275L549.893 233.198Z" fill="#264653"/>
<rect width="4.2071" height="26.4819" rx="2.10355" transform="matrix(-1 -8.81451e-08 -8.81451e-08 1 488.247 107.572)" fill="#F3A261"/>
<path d="M486.858 62.7445L485.971 59.4201L484.955 62.7075L467.054 120.63L466.657 121.913H468H501.363H502.652L502.32 120.667L486.858 62.7445Z" fill="#2A9D8E" stroke="#2A9D8E" stroke-width="1.98111"/>
<path d="M492.893 89.1978L493.274 90.6219V90.6242L486.57 97.1452V120.813H485.23V111.312L474.537 99.768L474.976 98.3485L485.23 109.337V65.1698L485.901 63L486.57 65.509V95.2751L492.893 89.1978Z" fill="#264653"/>
<rect width="4.2071" height="26.4819" rx="2.10355" transform="matrix(-1 -8.81451e-08 -8.81451e-08 1 263.043 235.572)" fill="#F3A261"/>
<path d="M261.654 190.745L260.766 187.42L259.75 190.708L241.85 248.63L241.453 249.913H242.796H276.159H277.448L277.116 248.667L261.654 190.745Z" fill="#2A9D8E" stroke="#2A9D8E" stroke-width="1.98111"/>
<path d="M267.689 217.198L268.07 218.622V218.624L261.366 225.145V248.813H260.026V239.312L249.333 227.768L249.772 226.349L260.026 237.337V193.17L260.697 191L261.366 193.509V223.275L267.689 217.198Z" fill="#264653"/>
<rect width="4.2071" height="26.4819" rx="2.10355" transform="matrix(-1 -8.81451e-08 -8.81451e-08 1 756.247 52.5721)" fill="#F3A261"/>
<path d="M754.858 7.74453L753.971 4.42007L752.955 7.70752L735.054 65.6297L734.657 66.9128H736H769.363H770.652L770.32 65.6667L754.858 7.74453Z" fill="#2A9D8E" stroke="#2A9D8E" stroke-width="1.98111"/>
<path d="M760.893 34.1978L761.274 35.6219V35.6242L754.57 42.1452V65.8131H753.23V56.3115L742.537 44.768L742.976 43.3485L753.23 54.3369V10.1698L753.901 8L754.57 10.509V40.2751L760.893 34.1978Z" fill="#264653"/>
<rect width="4.2071" height="26.4819" rx="2.10355" transform="matrix(-1 -8.81451e-08 -8.81451e-08 1 1051.25 344.572)" fill="#F3A261"/>
<path d="M1049.86 299.745L1048.97 296.42L1047.95 299.708L1030.05 357.63L1029.66 358.913H1031H1064.36H1065.65L1065.32 357.667L1049.86 299.745Z" fill="#2A9D8E" stroke="#2A9D8E" stroke-width="1.98111"/>
<path d="M1055.89 326.198L1056.27 327.622V327.624L1049.57 334.145V357.813H1048.23V348.312L1037.54 336.768L1037.98 335.349L1048.23 346.337V302.17L1048.9 300L1049.57 302.509V332.275L1055.89 326.198Z" fill="#264653"/>
<rect width="4.2071" height="26.4819" rx="2.10355" transform="matrix(-1 -8.81451e-08 -8.81451e-08 1 826.247 276.572)" fill="#F3A261"/>
<path d="M824.858 231.745L823.971 228.42L822.955 231.708L805.054 289.63L804.657 290.913H806H839.363H840.652L840.32 289.667L824.858 231.745Z" fill="#2A9D8E" stroke="#2A9D8E" stroke-width="1.98111"/>
<path d="M830.893 258.198L831.274 259.622V259.624L824.57 266.145V289.813H823.23V280.312L812.537 268.768L812.976 267.349L823.23 278.337V234.17L823.901 232L824.57 234.509V264.275L830.893 258.198Z" fill="#264653"/>
<rect width="4.2071" height="26.4819" rx="2.10355" transform="matrix(-1 -8.81451e-08 -8.81451e-08 1 511.247 350.572)" fill="#F3A261"/>
<path d="M509.858 305.745L508.971 302.42L507.955 305.708L490.054 363.63L489.657 364.913H491H524.363H525.652L525.32 363.667L509.858 305.745Z" fill="#2A9D8E" stroke="#2A9D8E" stroke-width="1.98111"/>
<path d="M515.893 332.198L516.274 333.622V333.624L509.57 340.145V363.813H508.23V354.312L497.537 342.768L497.976 341.349L508.23 352.337V308.17L508.901 306L509.57 308.509V338.275L515.893 332.198Z" fill="#264653"/>
<rect width="4.2071" height="26.4819" rx="2.10355" transform="matrix(-1 -8.81451e-08 -8.81451e-08 1 136.247 272.572)" fill="#F3A261"/>
<path d="M134.858 227.745L133.971 224.42L132.955 227.708L115.054 285.63L114.657 286.913H116H149.363H150.652L150.32 285.667L134.858 227.745Z" fill="#2A9D8E" stroke="#2A9D8E" stroke-width="1.98111"/>
<path d="M140.893 254.198L141.274 255.622V255.624L134.57 262.145V285.813H133.23V276.312L122.537 264.768L122.976 263.349L133.23 274.337V230.17L133.901 228L134.57 230.509V260.275L140.893 254.198Z" fill="#264653"/>
<rect width="5.86674" height="36.9286" rx="2.93337" transform="matrix(-1 -8.81451e-08 -8.81451e-08 1 369.817 338.44)" fill="#F3A261"/>
<path d="M368.297 276.644L367.06 272.008L365.643 276.592L340.68 357.364L340.127 359.153H342H388.524H390.322L389.859 357.416L368.297 276.644Z" fill="#E66F51" stroke="#E66F51" stroke-width="2.76263"/>
<path d="M376.713 313.532L377.245 315.518V315.522L367.896 324.615V357.62H366.027V344.37L351.116 328.272L351.728 326.293L366.027 341.616V280.026L366.963 277L367.896 280.499V322.007L376.713 313.532Z" fill="#264653"/>
<rect width="5.86674" height="36.9286" rx="2.93337" transform="matrix(-1 -8.81451e-08 -8.81451e-08 1 61.8171 202.44)" fill="#F3A261"/>
<path d="M60.2973 140.644L59.0597 136.008L57.643 140.592L32.6803 221.364L32.1273 223.153H34H80.524H82.3225L81.8586 221.416L60.2973 140.644Z" fill="#E66F51" stroke="#E66F51" stroke-width="2.76263"/>
<path d="M68.7133 177.532L69.2446 179.518V179.522L59.8958 188.615V221.62H58.0266V208.37L43.1157 192.272L43.728 190.293L58.0266 205.616V144.026L58.9628 141L59.8958 144.499V186.007L68.7133 177.532Z" fill="#264653"/>
<rect width="5.86674" height="36.9286" rx="2.93337" transform="matrix(-1 -8.81451e-08 -8.81451e-08 1 833.817 160.44)" fill="#F3A261"/>
<path d="M832.297 98.6439L831.06 94.008L829.643 98.5923L804.68 179.364L804.127 181.153H806H852.524H854.322L853.859 179.416L832.297 98.6439Z" fill="#E66F51" stroke="#E66F51" stroke-width="2.76263"/>
<path d="M840.713 135.532L841.245 137.518V137.522L831.896 146.615V179.62H830.027V166.37L815.116 150.272L815.728 148.293L830.027 163.616V102.026L830.963 99L831.896 102.499V144.007L840.713 135.532Z" fill="#264653"/>
<rect width="5.86674" height="36.9286" rx="2.93337" transform="matrix(-1 -8.81451e-08 -8.81451e-08 1 439.817 212.44)" fill="#F3A261"/>
<path d="M438.297 150.644L437.06 146.008L435.643 150.592L410.68 231.364L410.127 233.153H412H458.524H460.322L459.859 231.416L438.297 150.644Z" fill="#E66F51" stroke="#E66F51" stroke-width="2.76263"/>
<path d="M446.713 187.532L447.245 189.518V189.522L437.896 198.615V231.62H436.027V218.37L421.116 202.272L421.728 200.293L436.027 215.616V154.026L436.963 151L437.896 154.499V196.007L446.713 187.532Z" fill="#264653"/>
<rect width="4.10622" height="25.8469" rx="2.05311" transform="matrix(-1 -8.81451e-08 -8.81451e-08 1 322.47 225.003)" fill="#F3A261"/>
<path d="M321.406 181.751L320.54 178.506L319.548 181.715L302.076 238.248L301.689 239.5H303H335.563H336.822L336.497 238.284L321.406 181.751Z" fill="#E66F51" stroke="#E66F51" stroke-width="1.9336"/>
<path d="M327.296 207.57L327.668 208.96V208.962L321.125 215.326V238.427H319.817V229.153L309.38 217.886L309.809 216.501L319.817 227.226V184.118L320.472 182L321.125 184.449V213.501L327.296 207.57Z" fill="#264653"/>
<rect width="3.89258" height="24.5022" rx="1.94629" transform="matrix(-1 -8.81451e-08 -8.81451e-08 1 609.457 350.766)" fill="#F3A261"/>
<path d="M608.448 309.764L607.627 306.688L606.687 309.729L590.124 363.321L589.757 364.509H591H621.869H623.062L622.754 363.356L608.448 309.764Z" fill="#E66F51" stroke="#E66F51" stroke-width="1.833"/>
<path d="M614.032 334.239L614.385 335.557V335.559L608.182 341.593V363.491H606.942V354.7L597.048 344.019L597.454 342.706L606.942 352.873V312.008L607.563 310L608.182 312.321V339.862L614.032 334.239Z" fill="#264653"/>
<rect width="3.89258" height="24.5022" rx="1.94629" transform="matrix(-1 -8.81451e-08 -8.81451e-08 1 736.457 180.766)" fill="#F3A261"/>
<path d="M735.448 139.764L734.627 136.688L733.687 139.729L717.124 193.321L716.757 194.509H718H748.869H750.062L749.754 193.356L735.448 139.764Z" fill="#E66F51" stroke="#E66F51" stroke-width="1.833"/>
<path d="M741.032 164.239L741.385 165.557V165.559L735.182 171.593V193.491H733.942V184.7L724.048 174.019L724.454 172.706L733.942 182.873V142.008L734.563 140L735.182 142.321V169.862L741.032 164.239Z" fill="#264653"/>
<rect width="3.89258" height="24.5022" rx="1.94629" transform="matrix(-1 -8.81451e-08 -8.81451e-08 1 395.457 167.766)" fill="#F3A261"/>
<path d="M394.448 126.764L393.627 123.688L392.687 126.729L376.124 180.321L375.757 181.509H377H407.869H409.062L408.754 180.356L394.448 126.764Z" fill="#E66F51" stroke="#E66F51" stroke-width="1.833"/>
<path d="M400.032 151.239L400.385 152.557V152.559L394.182 158.593V180.491H392.942V171.7L383.048 161.019L383.454 159.706L392.942 169.873V129.008L393.563 127L394.182 129.321V156.862L400.032 151.239Z" fill="#264653"/>
<path d="M654.204 320.797L678.541 320.761H680.725L700.305 320.734C702.238 318.844 703.647 316.485 704.394 313.886C705.14 311.288 705.199 308.541 704.563 305.913C703.927 303.285 702.62 300.868 700.768 298.898C698.917 296.929 696.585 295.474 694.002 294.678C691.418 293.881 688.673 293.769 686.033 294.354C683.394 294.939 680.952 296.2 678.947 298.013C676.942 299.826 675.443 302.129 674.596 304.697C673.75 307.264 673.585 310.007 674.119 312.658C672.31 311.669 670.305 311.097 668.247 310.982C666.19 310.866 664.132 311.211 662.225 311.991C660.318 312.77 658.608 313.965 657.22 315.489C655.833 317.013 654.803 318.826 654.204 320.798V320.797Z" fill="#2A9D8E"/>
<path d="M168 209.797L192.337 209.761H194.52L214.101 209.734C216.034 207.844 217.443 205.485 218.19 202.886C218.936 200.288 218.994 197.541 218.359 194.913C217.723 192.285 216.416 189.868 214.564 187.898C212.712 185.929 210.381 184.474 207.798 183.678C205.214 182.881 202.468 182.769 199.829 183.354C197.19 183.939 194.748 185.2 192.743 187.013C190.738 188.826 189.239 191.129 188.392 193.697C187.546 196.264 187.381 199.007 187.915 201.658C186.106 200.669 184.1 200.097 182.043 199.982C179.986 199.866 177.928 200.211 176.021 200.991C174.114 201.77 172.404 202.965 171.016 204.489C169.629 206.013 168.598 207.826 168 209.798V209.797Z" fill="#2A9D8E"/>
<path d="M489.331 293.985C495.581 293.985 500.647 284.586 500.647 272.992C500.647 261.399 495.581 252 489.331 252C483.081 252 478.015 261.399 478.015 272.992C478.015 284.586 483.081 293.985 489.331 293.985Z" fill="#2A9D8E"/>
<path d="M489.331 270.982V299.185" stroke="#F3A261" stroke-width="4.21903" stroke-miterlimit="10" stroke-linecap="round"/>
<path d="M114.331 215.985C120.581 215.985 125.647 206.586 125.647 194.992C125.647 183.399 120.581 174 114.331 174C108.081 174 103.015 183.399 103.015 194.992C103.015 206.586 108.081 215.985 114.331 215.985Z" fill="#2A9D8E"/>
<path d="M114.331 192.982V221.185" stroke="#F3A261" stroke-width="4.21903" stroke-miterlimit="10" stroke-linecap="round"/>
<path d="M338.649 292.232C348.397 292.232 356.299 284.345 356.299 274.616C356.299 264.887 348.397 257 338.649 257C328.902 257 321 264.887 321 274.616C321 284.345 328.902 292.232 338.649 292.232Z" fill="#E66F51"/>
<path d="M338.649 277.459V321.445" stroke="#F3A261" stroke-width="6.58023" stroke-miterlimit="10" stroke-linecap="round"/>
<path d="M896.649 288.232C906.397 288.232 914.299 280.345 914.299 270.616C914.299 260.887 906.397 253 896.649 253C886.902 253 879 260.887 879 270.616C879 280.345 886.902 288.232 896.649 288.232Z" fill="#E66F51"/>
<path d="M896.649 273.459V317.445" stroke="#F3A261" stroke-width="6.58023" stroke-miterlimit="10" stroke-linecap="round"/>
<path d="M220.449 377.076C228.43 377.076 234.899 368.329 234.899 357.538C234.899 346.748 228.43 338 220.449 338C212.469 338 206 346.748 206 357.538C206 368.329 212.469 377.076 220.449 377.076Z" fill="#CD5237"/>
<path d="M220.449 358.923V380" stroke="#E9C46B" stroke-width="3.73286" stroke-miterlimit="10" stroke-linecap="round"/>
<path d="M729.378 303.782C739.527 303.782 747.755 291.966 747.755 277.391C747.755 262.816 739.527 251 729.378 251C719.228 251 711 262.816 711 277.391C711 291.966 719.228 303.782 729.378 303.782Z" fill="#CD5237"/>
<path d="M729.378 275.814V307.833" stroke="#E9C46B" stroke-width="4.21903" stroke-miterlimit="10" stroke-linecap="round"/>
<path d="M496.378 215.782C506.527 215.782 514.755 203.966 514.755 189.391C514.755 174.816 506.527 163 496.378 163C486.228 163 478 174.816 478 189.391C478 203.966 486.228 215.782 496.378 215.782Z" fill="#CD5237"/>
<path d="M496.378 187.814V219.833" stroke="#E9C46B" stroke-width="4.21903" stroke-miterlimit="10" stroke-linecap="round"/>
<path d="M243.174 192.782C253.323 192.782 261.551 180.966 261.551 166.391C261.551 151.816 253.323 140 243.174 140C233.024 140 224.796 151.816 224.796 166.391C224.796 180.966 233.024 192.782 243.174 192.782Z" fill="#CD5237"/>
<path d="M243.174 164.814V196.833" stroke="#E9C46B" stroke-width="4.21903" stroke-miterlimit="10" stroke-linecap="round"/>
<path d="M800.159 369.82C807.979 369.82 814.318 361.353 814.318 350.91C814.318 340.466 807.979 332 800.159 332C792.339 332 786 340.466 786 350.91C786 361.353 792.339 369.82 800.159 369.82Z" fill="#2A9D8E"/>
<path d="M800.159 348.595V375.481" stroke="#F3A261" stroke-width="4.21903" stroke-miterlimit="10" stroke-linecap="round"/>
<path d="M596.159 274.82C603.979 274.82 610.318 266.353 610.318 255.91C610.318 245.466 603.979 237 596.159 237C588.339 237 582 245.466 582 255.91C582 266.353 588.339 274.82 596.159 274.82Z" fill="#2A9D8E"/>
<path d="M596.159 253.595V280.481" stroke="#F3A261" stroke-width="4.21903" stroke-miterlimit="10" stroke-linecap="round"/>
<path d="M551 378.09L579.22 378.049H581.752L604.457 378.017C606.699 375.826 608.333 373.09 609.199 370.077C610.064 367.064 610.132 363.878 609.395 360.831C608.658 357.784 607.141 354.982 604.994 352.698C602.847 350.414 600.144 348.727 597.148 347.803C594.153 346.879 590.969 346.75 587.908 347.428C584.848 348.106 582.016 349.568 579.691 351.67C577.366 353.773 575.628 356.444 574.646 359.421C573.665 362.398 573.474 365.579 574.092 368.652C571.996 367.506 569.67 366.843 567.284 366.709C564.898 366.575 562.513 366.975 560.301 367.879C558.089 368.783 556.107 370.169 554.498 371.936C552.889 373.702 551.694 375.805 551 378.092V378.09Z" fill="#2A9D8E"/>
<path d="M529 167.09L557.22 167.049H559.752L582.457 167.017C584.699 164.826 586.333 162.09 587.199 159.077C588.064 156.064 588.132 152.878 587.395 149.831C586.658 146.784 585.141 143.982 582.994 141.698C580.847 139.414 578.144 137.727 575.148 136.803C572.153 135.879 568.969 135.75 565.908 136.428C562.848 137.106 560.016 138.568 557.691 140.67C555.366 142.773 553.628 145.444 552.646 148.421C551.665 151.398 551.474 154.579 552.092 157.652C549.996 156.506 547.67 155.843 545.284 155.709C542.898 155.575 540.513 155.975 538.301 156.879C536.089 157.783 534.107 159.169 532.498 160.936C530.889 162.702 529.694 164.805 529 167.092V167.09Z" fill="#2A9D8E"/>
<path d="M748 239.09L776.22 239.049H778.752L801.457 239.017C803.699 236.826 805.333 234.09 806.199 231.077C807.064 228.064 807.132 224.878 806.395 221.831C805.658 218.784 804.141 215.982 801.994 213.698C799.847 211.414 797.144 209.727 794.148 208.803C791.153 207.879 787.969 207.75 784.908 208.428C781.848 209.106 779.016 210.568 776.691 212.67C774.366 214.773 772.628 217.444 771.646 220.421C770.665 223.398 770.474 226.579 771.092 229.652C768.996 228.506 766.67 227.843 764.284 227.709C761.898 227.575 759.513 227.975 757.301 228.879C755.089 229.783 753.107 231.169 751.498 232.936C749.889 234.702 748.694 236.805 748 239.092V239.09Z" fill="#2A9D8E"/>
<path d="M176 300.09L204.22 300.049H206.752L229.457 300.017C231.699 297.826 233.333 295.09 234.199 292.077C235.064 289.064 235.132 285.878 234.395 282.831C233.658 279.784 232.141 276.982 229.994 274.698C227.847 272.414 225.144 270.727 222.148 269.803C219.153 268.879 215.969 268.75 212.908 269.428C209.848 270.106 207.016 271.568 204.691 273.67C202.366 275.773 200.628 278.444 199.646 281.421C198.665 284.398 198.474 287.579 199.092 290.652C196.996 289.506 194.67 288.843 192.284 288.709C189.898 288.575 187.513 288.975 185.301 289.879C183.089 290.783 181.107 292.169 179.498 293.936C177.889 295.702 176.694 297.805 176 300.092V300.09Z" fill="#2A9D8E"/>
<path d="M911.902 383.534L893.264 383.506H891.591L876.596 383.485C875.115 382.038 874.036 380.231 873.464 378.241C872.893 376.252 872.848 374.147 873.335 372.135C873.822 370.123 874.823 368.271 876.241 366.763C877.659 365.254 879.445 364.141 881.423 363.53C883.401 362.92 885.504 362.835 887.526 363.283C889.547 363.73 891.417 364.696 892.953 366.085C894.488 367.473 895.636 369.237 896.285 371.203C896.933 373.17 897.059 375.271 896.65 377.3C898.035 376.544 899.571 376.105 901.147 376.017C902.723 375.928 904.298 376.192 905.759 376.789C907.22 377.387 908.529 378.302 909.592 379.469C910.654 380.636 911.444 382.025 911.902 383.535V383.534Z" fill="#2A9D8E"/>
<path d="M427 355.057L454.773 355.016H457.265L479.609 354.985C481.816 352.829 483.424 350.136 484.276 347.171C485.128 344.206 485.194 341.07 484.469 338.072C483.743 335.073 482.251 332.315 480.138 330.067C478.025 327.819 475.364 326.159 472.416 325.25C469.468 324.341 466.335 324.214 463.323 324.881C460.311 325.548 457.524 326.987 455.236 329.056C452.948 331.125 451.237 333.754 450.271 336.684C449.305 339.613 449.117 342.744 449.726 345.768C447.663 344.641 445.374 343.987 443.026 343.856C440.678 343.724 438.33 344.117 436.153 345.007C433.977 345.897 432.026 347.261 430.442 349C428.859 350.738 427.683 352.808 427 355.059V355.057Z" fill="#2A9D8E"/>
<path d="M52 277.057L79.7728 277.016H82.2647L104.609 276.985C106.816 274.829 108.424 272.136 109.276 269.171C110.128 266.206 110.194 263.07 109.469 260.072C108.743 257.073 107.251 254.315 105.138 252.067C103.025 249.819 100.364 248.159 97.4164 247.25C94.4685 246.341 91.3349 246.214 88.323 246.881C85.3111 247.548 82.5244 248.987 80.2363 251.056C77.9482 253.125 76.2372 255.754 75.2712 258.684C74.3052 261.613 74.1174 264.744 74.7262 267.768C72.6626 266.641 70.3736 265.987 68.0257 265.856C65.6778 265.724 63.3301 266.117 61.1534 267.007C58.9766 267.897 57.0256 269.261 55.4422 271C53.8588 272.738 52.6829 274.808 52 277.059V277.057Z" fill="#2A9D8E"/>
</svg>
