<svg width="21" height="20" viewBox="0 0 21 20" fill="none" xmlns="http://www.w3.org/2000/svg">
<path d="M12.86 12.23C12.1915 12.769 11.3587 13.0629 10.5 13.0629C9.64131 13.0629 8.80849 12.769 8.14 12.23C7.93579 12.0603 7.67251 11.9786 7.40808 12.003C7.14365 12.0274 6.89974 12.1558 6.73 12.36C6.56027 12.5642 6.4786 12.8275 6.50298 13.0919C6.52736 13.3563 6.65579 13.6003 6.86 13.77C7.88134 14.6226 9.16957 15.0896 10.5 15.0896C11.8304 15.0896 13.1187 14.6226 14.14 13.77C14.3442 13.6003 14.4726 13.3563 14.497 13.0919C14.5214 12.8275 14.4397 12.5642 14.27 12.36C14.186 12.2589 14.0828 12.1753 13.9665 12.1141C13.8501 12.0528 13.7229 12.0151 13.5919 12.003C13.3275 11.9786 13.0642 12.0603 12.86 12.23ZM7.71 8.54C7.89737 8.72625 8.15082 8.83079 8.415 8.83079C8.67919 8.83079 8.93264 8.72625 9.12 8.54C9.30626 8.35264 9.4108 8.09919 9.4108 7.835C9.4108 7.57081 9.30626 7.31736 9.12 7.13C8.54773 6.58699 7.7889 6.28428 7 6.28428C6.21111 6.28428 5.45228 6.58699 4.88 7.13C4.77532 7.21965 4.6903 7.32997 4.63028 7.45403C4.57026 7.57809 4.53653 7.71323 4.53121 7.85095C4.52589 7.98867 4.54909 8.126 4.59937 8.25432C4.64964 8.38265 4.7259 8.4992 4.82335 8.59665C4.92081 8.69411 5.03736 8.77036 5.16568 8.82064C5.29401 8.87091 5.43134 8.89412 5.56906 8.8888C5.70678 8.88348 5.84191 8.84975 5.96597 8.78973C6.09004 8.7297 6.20036 8.64468 6.29 8.54C6.38297 8.44627 6.49357 8.37188 6.61543 8.32111C6.73729 8.27034 6.86799 8.2442 7 8.2442C7.13202 8.2442 7.26272 8.27034 7.38458 8.32111C7.50644 8.37188 7.61704 8.44627 7.71 8.54ZM16.12 7.13C15.5477 6.58699 14.7889 6.28428 14 6.28428C13.2111 6.28428 12.4523 6.58699 11.88 7.13C11.7162 7.3213 11.6306 7.56738 11.6403 7.81905C11.65 8.07073 11.7543 8.30947 11.9324 8.48756C12.1105 8.66566 12.3493 8.76999 12.601 8.77971C12.8526 8.78943 13.0987 8.70383 13.29 8.54C13.383 8.44627 13.4936 8.37188 13.6154 8.32111C13.7373 8.27034 13.868 8.2442 14 8.2442C14.132 8.2442 14.2627 8.27034 14.3846 8.32111C14.5064 8.37188 14.617 8.44627 14.71 8.54C14.8974 8.72625 15.1508 8.83079 15.415 8.83079C15.6792 8.83079 15.9326 8.72625 16.12 8.54C16.3063 8.35264 16.4108 8.09919 16.4108 7.835C16.4108 7.57081 16.3063 7.31736 16.12 7.13ZM10.5 0C8.52219 0 6.58879 0.58649 4.9443 1.6853C3.29981 2.78412 2.01809 4.3459 1.26121 6.17317C0.504333 8.00043 0.306299 10.0111 0.692152 11.9509C1.078 13.8907 2.03041 15.6725 3.42894 17.0711C4.82746 18.4696 6.60929 19.422 8.5491 19.8079C10.4889 20.1937 12.4996 19.9957 14.3268 19.2388C16.1541 18.4819 17.7159 17.2002 18.8147 15.5557C19.9135 13.9112 20.5 11.9778 20.5 10C20.5 8.68678 20.2413 7.38642 19.7388 6.17317C19.2363 4.95991 18.4997 3.85752 17.5711 2.92893C16.6425 2.00035 15.5401 1.26375 14.3268 0.761205C13.1136 0.258658 11.8132 0 10.5 0ZM10.5 18C8.91775 18 7.37104 17.5308 6.05544 16.6518C4.73985 15.7727 3.71447 14.5233 3.10897 13.0615C2.50347 11.5997 2.34504 9.99113 2.65372 8.43928C2.9624 6.88743 3.72433 5.46197 4.84315 4.34315C5.96197 3.22433 7.38743 2.4624 8.93928 2.15372C10.4911 1.84504 12.0997 2.00346 13.5615 2.60896C15.0233 3.21447 16.2727 4.23984 17.1518 5.55544C18.0308 6.87103 18.5 8.41775 18.5 10C18.5 12.1217 17.6572 14.1566 16.1569 15.6569C14.6566 17.1571 12.6217 18 10.5 18Z" fill="#2A9D8E"/>
</svg>
