<svg width="20" height="20" viewBox="0 0 20 20" fill="none" xmlns="http://www.w3.org/2000/svg">
<path fill-rule="evenodd" clip-rule="evenodd" d="M10 0C7.284 0 6.944 0.0119996 5.87734 0.0599996C4.81067 0.108 4.08533 0.277334 3.44933 0.525334C2.78526 0.782326 2.18217 1.17515 1.67866 1.67866C1.17515 2.18217 0.782327 2.78526 0.525334 3.44933C0.277334 4.08533 0.109333 4.812 0.0599996 5.87733C0.0106663 6.94267 0 7.284 0 10C0 12.716 0.0119996 13.056 0.0599996 14.1227C0.108 15.1893 0.277334 15.9147 0.525334 16.5507C0.782327 17.2147 1.17515 17.8178 1.67866 18.3213C2.18217 18.8249 2.78526 19.2177 3.44933 19.4747C4.08533 19.7227 4.812 19.8907 5.87734 19.94C6.94267 19.9893 7.284 20 10 20C12.716 20 13.056 19.988 14.1227 19.94C15.1893 19.892 15.9147 19.7227 16.5507 19.4747C17.2147 19.2177 17.8178 18.8249 18.3213 18.3213C18.8249 17.8178 19.2177 17.2147 19.4747 16.5507C19.7227 15.9147 19.8907 15.188 19.94 14.1227C19.9893 13.0573 20 12.716 20 10C20 7.284 19.988 6.944 19.94 5.87733C19.892 4.81067 19.7227 4.08533 19.4747 3.44933C19.2177 2.78526 18.8249 2.18217 18.3213 1.67866C17.8178 1.17515 17.2147 0.782326 16.5507 0.525334C15.9147 0.277334 15.188 0.109333 14.1227 0.0599996C13.0573 0.0106663 12.716 0 10 0ZM9.99965 4.86533C8.98411 4.86533 7.99138 5.16647 7.14699 5.73068C6.3026 6.29488 5.64447 7.09681 5.25584 8.03504C4.86721 8.97328 4.76553 10.0057 4.96365 11.0017C5.16177 11.9977 5.6508 12.9127 6.3689 13.6308C7.08699 14.3488 8.0019 14.8379 8.99793 15.036C9.99396 15.2341 11.0264 15.1324 11.9646 14.7438C12.9028 14.3552 13.7048 13.6971 14.269 12.8527C14.8332 12.0083 15.1343 11.0155 15.1343 10C15.1343 8.6382 14.5933 7.33218 13.6304 6.36924C12.6675 5.4063 11.3615 4.86533 9.99965 4.86533ZM9.99965 13.3333C9.34038 13.3333 8.69592 13.1378 8.14775 12.7716C7.59959 12.4053 7.17235 11.8847 6.92006 11.2756C6.66776 10.6665 6.60175 9.9963 6.73037 9.34969C6.85899 8.70309 7.17646 8.10915 7.64263 7.64297C8.10881 7.1768 8.70275 6.85933 9.34935 6.73071C9.99596 6.60209 10.6662 6.66811 11.2753 6.9204C11.8843 7.17269 12.4049 7.59993 12.7712 8.1481C13.1375 8.69626 13.333 9.34072 13.333 10C13.333 10.884 12.9818 11.7319 12.3567 12.357C11.7316 12.9821 10.8837 13.3333 9.99965 13.3333ZM16.5375 4.66133C16.5375 5.32408 16.0003 5.86133 15.3375 5.86133C14.6748 5.86133 14.1375 5.32408 14.1375 4.66133C14.1375 3.99859 14.6748 3.46133 15.3375 3.46133C16.0003 3.46133 16.5375 3.99859 16.5375 4.66133Z" fill="white"/>
</svg>
