<svg width="27" height="21" viewBox="0 0 27 21" fill="none" xmlns="http://www.w3.org/2000/svg">
<path d="M22.95 0H4.05C2.97587 0 1.94574 0.414843 1.18622 1.15327C0.426695 1.89169 0 2.89321 0 3.9375V17.0625C0 18.1068 0.426695 19.1083 1.18622 19.8467C1.94574 20.5852 2.97587 21 4.05 21H22.95C24.0241 21 25.0543 20.5852 25.8138 19.8467C26.5733 19.1083 27 18.1068 27 17.0625V3.9375C27 2.89321 26.5733 1.89169 25.8138 1.15327C25.0543 0.414843 24.0241 0 22.95 0ZM22.3965 2.625L14.4585 10.3425C14.333 10.4655 14.1837 10.5632 14.0192 10.6298C13.8547 10.6964 13.6782 10.7307 13.5 10.7307C13.3218 10.7307 13.1453 10.6964 12.9808 10.6298C12.8163 10.5632 12.667 10.4655 12.5415 10.3425L4.6035 2.625H22.3965ZM24.3 17.0625C24.3 17.4106 24.1578 17.7444 23.9046 17.9906C23.6514 18.2367 23.308 18.375 22.95 18.375H4.05C3.69196 18.375 3.34858 18.2367 3.09541 17.9906C2.84223 17.7444 2.7 17.4106 2.7 17.0625V4.47563L10.638 12.1931C11.3974 12.9305 12.4267 13.3447 13.5 13.3447C14.5733 13.3447 15.6026 12.9305 16.362 12.1931L24.3 4.47563V17.0625Z" fill="white"/>
</svg>
