<svg width="26" height="15" viewBox="0 0 26 15" fill="none" xmlns="http://www.w3.org/2000/svg">
<path d="M25.4039 1.0158C25.5855 0.42976 25.4039 0 24.5449 0H21.6995C20.9755 0 20.6446 0.371787 20.463 0.780122C20.463 0.780122 19.0162 4.20686 16.9662 6.42875C16.3045 7.07528 16.0021 7.27945 15.6414 7.27945C15.4611 7.27945 15.199 7.07528 15.199 6.48925V1.0158C15.199 0.312553 14.9901 0 14.3867 0H9.91554C9.46401 0 9.19153 0.325156 9.19153 0.635188C9.19153 1.30062 10.2166 1.45438 10.3217 3.32969V7.39792C10.3217 8.28894 10.1569 8.45152 9.79357 8.45152C8.82953 8.45152 6.48364 5.01218 5.09141 1.07503C4.82023 0.310032 4.54646 0.0012608 3.81986 0.0012608H0.975725C0.162188 0.0012608 0 0.373047 0 0.781382C0 1.51487 0.964047 5.14451 4.49067 9.94497C6.84175 13.223 10.1517 15 13.1671 15C14.9745 15 15.1977 14.6055 15.1977 13.925V11.4472C15.1977 10.6583 15.3703 10.4995 15.9425 10.4995C16.3628 10.4995 17.0869 10.7062 18.7749 12.2853C20.703 14.1581 21.0222 14.9987 22.1056 14.9987H24.9497C25.762 14.9987 26.1681 14.6043 25.9345 13.8254C25.6789 13.0503 24.7577 11.9224 23.5355 10.5877C22.8711 9.8265 21.8785 9.00731 21.5762 8.59771C21.1545 8.06965 21.2765 7.8365 21.5762 7.36767C21.5775 7.36893 25.0432 2.62771 25.4039 1.0158Z" fill="white"/>
</svg>
