<svg width="73" height="84" viewBox="0 0 73 84" fill="none" xmlns="http://www.w3.org/2000/svg">
<path d="M61.8705 59.1945C61.4394 54.1359 59.3985 11.0811 46.0046 27.54C43.6498 30.4331 40.1212 39.6556 36.1492 40.4206C28.9775 41.8011 26.3038 15.2799 25.6708 11.3527C25.2896 8.98291 21.6863 9.98962 22.0675 12.3469C23.2362 19.6083 28.2225 56.6253 42.1297 39.7727C43.8417 37.6969 48.5065 27.3656 51.4045 27.3481C56.8593 27.3157 57.871 56.1369 58.1326 59.197C58.337 61.5742 62.0748 61.5942 61.8705 59.1945Z" fill="white"/>
<path d="M61.8705 59.1945C61.4394 54.1359 59.3985 11.0811 46.0046 27.54C43.6498 30.4331 40.1212 39.6556 36.1492 40.4206C28.9775 41.8011 26.3038 15.2799 25.6708 11.3527C25.2896 8.98291 21.6863 9.98962 22.0675 12.3469C23.2362 19.6083 28.2225 56.6253 42.1297 39.7727C43.8417 37.6969 48.5065 27.3656 51.4045 27.3481C56.8593 27.3157 57.871 56.1369 58.1326 59.197C58.337 61.5742 62.0748 61.5942 61.8705 59.1945Z" fill="url(#paint0_radial)"/>
<g filter="url(#filter0_d)">
<path d="M58.1327 11.8488C58.0106 19.3394 57.9632 30.6326 49.1195 33.132C44.8659 34.3356 40.216 33.2665 35.8751 33.9344C23.4755 35.8432 22.1723 48.7088 22.0003 59.1947C21.9604 61.6018 25.6983 61.6018 25.7381 59.1947C25.8603 51.704 25.9076 40.4108 34.7513 37.9114C39.005 36.7078 43.6548 37.7769 47.9957 37.109C60.3953 35.2003 61.6986 22.3346 61.8705 11.8488C61.9104 9.4416 58.1726 9.4416 58.1327 11.8488Z" fill="white"/>
<path d="M58.1327 11.8488C58.0106 19.3394 57.9632 30.6326 49.1195 33.132C44.8659 34.3356 40.216 33.2665 35.8751 33.9344C23.4755 35.8432 22.1723 48.7088 22.0003 59.1947C21.9604 61.6018 25.6983 61.6018 25.7381 59.1947C25.8603 51.704 25.9076 40.4108 34.7513 37.9114C39.005 36.7078 43.6548 37.7769 47.9957 37.109C60.3953 35.2003 61.6986 22.3346 61.8705 11.8488C61.9104 9.4416 58.1726 9.4416 58.1327 11.8488Z" fill="url(#paint1_radial)"/>
<path d="M58.1327 11.8488C58.0106 19.3394 57.9632 30.6326 49.1195 33.132C44.8659 34.3356 40.216 33.2665 35.8751 33.9344C23.4755 35.8432 22.1723 48.7088 22.0003 59.1947C21.9604 61.6018 25.6983 61.6018 25.7381 59.1947C25.8603 51.704 25.9076 40.4108 34.7513 37.9114C39.005 36.7078 43.6548 37.7769 47.9957 37.109C60.3953 35.2003 61.6986 22.3346 61.8705 11.8488C61.9104 9.4416 58.1726 9.4416 58.1327 11.8488Z" fill="url(#paint2_radial)"/>
</g>
<path d="M25.6708 11.3527C26.3038 15.2799 28.9775 41.8011 36.1492 40.4206C36.1492 40.4206 41.3597 43.5109 35.4883 44.0141C26.3432 44.7978 23.0374 18.373 22.0675 12.3469C21.6863 9.98962 25.2896 8.98291 25.6708 11.3527Z" fill="white"/>
<path d="M58.1324 59.1969C57.8707 56.1369 56.859 27.3157 51.4043 27.3481L51.9087 23.8277C60.0468 24.6461 61.5126 54.9976 61.8702 59.1944C62.0746 61.5941 58.3367 61.5742 58.1324 59.1969Z" fill="white"/>
<defs>
<filter id="filter0_d" x="0.164951" y="0.895564" width="71.8708" height="82.9566" filterUnits="userSpaceOnUse" color-interpolation-filters="sRGB">
<feFlood flood-opacity="0" result="BackgroundImageFix"/>
<feColorMatrix in="SourceAlpha" type="matrix" values="0 0 0 0 0 0 0 0 0 0 0 0 0 0 0 0 0 0 127 0"/>
<feOffset dx="-5.83505" dy="6.85217"/>
<feGaussianBlur stdDeviation="8"/>
<feColorMatrix type="matrix" values="0 0 0 0 0 0 0 0 0 0 0 0 0 0 0 0 0 0 0.19 0"/>
<feBlend mode="normal" in2="BackgroundImageFix" result="effect1_dropShadow"/>
<feBlend mode="normal" in="SourceGraphic" in2="effect1_dropShadow" result="shape"/>
</filter>
<radialGradient id="paint0_radial" cx="0" cy="0" r="1" gradientUnits="userSpaceOnUse" gradientTransform="translate(42.9047 36.2395) rotate(24.5514) scale(8.0101 3.65059)">
<stop stop-opacity="0.5"/>
<stop offset="1" stop-color="white" stop-opacity="0"/>
</radialGradient>
<radialGradient id="paint1_radial" cx="0" cy="0" r="1" gradientUnits="userSpaceOnUse" gradientTransform="translate(29.991 38.5635) rotate(80.4399) scale(3.49788 3.16348)">
<stop stop-opacity="0.5"/>
<stop offset="1" stop-color="white" stop-opacity="0"/>
</radialGradient>
<radialGradient id="paint2_radial" cx="0" cy="0" r="1" gradientUnits="userSpaceOnUse" gradientTransform="translate(55.298 30.8177) rotate(70.2673) scale(4.7317 3.06337)">
<stop stop-opacity="0.4"/>
<stop offset="1" stop-color="white" stop-opacity="0"/>
</radialGradient>
</defs>
</svg>
