<svg width="320" height="264" viewBox="0 0 320 264" fill="none" xmlns="http://www.w3.org/2000/svg">
<path d="M201.22 264.026H218.614C218.974 264.023 219.322 263.892 219.594 263.656L222.351 261.308C222.426 261.243 222.516 261.199 222.613 261.179C222.71 261.16 222.811 261.165 222.905 261.195C223 261.226 223.085 261.28 223.152 261.353C223.219 261.425 223.267 261.514 223.29 261.61L223.736 263.467C223.775 263.627 223.866 263.77 223.996 263.872C224.125 263.974 224.285 264.029 224.45 264.029H231.462C231.57 264.029 231.677 264.005 231.775 263.959C231.873 263.913 231.959 263.846 232.028 263.763C232.097 263.68 232.147 263.582 232.174 263.477C232.201 263.373 232.204 263.263 232.184 263.157L230.045 251.967H212.338L201.22 264.026Z" fill="#59221D"/>
<path d="M300.711 252.812L311.294 238.796C311.445 238.595 311.52 238.346 311.505 238.095L311.269 234.258C311.263 234.164 311.281 234.071 311.321 233.987C311.362 233.903 311.423 233.83 311.5 233.777C311.576 233.723 311.665 233.69 311.759 233.681C311.852 233.671 311.945 233.686 312.031 233.724L313.72 234.46C313.902 234.539 314.106 234.555 314.298 234.504C314.49 234.453 314.659 234.34 314.778 234.181L318.849 228.789C318.926 228.688 318.98 228.571 319.007 228.447C319.035 228.322 319.035 228.194 319.008 228.069C318.981 227.945 318.928 227.827 318.851 227.726C318.775 227.624 318.677 227.54 318.565 227.479L308.341 221.942L297.3 236.633L300.711 252.812Z" fill="#59221D"/>
<path d="M185.012 108.177L186.565 123.832C186.947 127.315 188.648 130.52 191.321 132.787C193.993 135.054 197.432 136.211 200.931 136.02C204.43 135.829 207.722 134.304 210.132 131.759C212.541 129.215 213.883 125.844 213.883 122.34V114.111C213.883 115.829 214.566 117.477 215.781 118.692C216.996 119.907 218.643 120.589 220.361 120.589H244.346C245.796 120.589 247.185 120.014 248.21 118.989C249.235 117.965 249.811 116.575 249.812 115.126V105.197C249.812 105.025 249.866 104.857 249.968 104.717C250.069 104.578 250.212 104.474 250.376 104.421C250.54 104.367 250.717 104.367 250.881 104.42C251.045 104.474 251.188 104.577 251.289 104.717L287.453 154.406C286.773 146.542 299.488 141.163 300.629 142.793L262.949 88.924C261.207 86.4332 258.889 84.3997 256.192 82.9961C253.496 81.5925 250.5 80.8603 247.46 80.8616H242.972C242.056 80.862 241.161 80.5947 240.395 80.0927C239.629 79.5907 239.027 78.8757 238.662 78.0359L238.036 76.5784H227.735L227.093 78.0891C226.732 78.9367 226.129 79.6594 225.361 80.1671C224.592 80.6749 223.69 80.9452 222.769 80.9446H219.289C214.278 80.9446 209.473 82.935 205.93 86.4781C202.387 90.0211 200.397 94.8265 200.397 99.8371V105.752L187.514 105.471C187.166 105.464 186.82 105.53 186.499 105.666C186.179 105.803 185.891 106.005 185.654 106.261C185.418 106.517 185.238 106.82 185.128 107.15C185.017 107.48 184.978 107.83 185.012 108.177Z" fill="#2A9D8E"/>
<path d="M213.885 114.114V101.37" stroke="#59221D" stroke-width="0.782751" stroke-linecap="round" stroke-linejoin="round"/>
<path d="M202.476 109.183L204.403 118.171" stroke="#59221D" stroke-width="0.782751" stroke-linecap="round" stroke-linejoin="round"/>
<path d="M218.282 120.896H245.649V124.862H218.282V120.896Z" fill="white" stroke="#59221D" stroke-width="0.782751" stroke-linejoin="round"/>
<path d="M221.047 120.896H242.828V124.862H221.047V120.896Z" stroke="#59221D" stroke-width="0.782751" stroke-linejoin="round"/>
<path d="M223.921 120.896H240.007V124.862H223.921V120.896Z" stroke="#59221D" stroke-width="0.782751" stroke-linejoin="round"/>
<path d="M226.736 120.896H237.161V124.862H226.736V120.896Z" stroke="#59221D" stroke-width="0.782751" stroke-linejoin="round"/>
<path d="M229.994 120.896H233.903V124.862H229.994V120.896Z" stroke="#59221D" stroke-width="0.782751" stroke-linejoin="round"/>
<path d="M243.813 124.863H221.038C219.395 124.863 217.813 125.488 216.615 126.612C215.417 127.736 214.691 129.274 214.587 130.914L207.562 240.499C207.493 241.573 207.646 242.649 208.009 243.662C208.373 244.675 208.941 245.602 209.677 246.387C210.413 247.172 211.302 247.797 212.29 248.225C213.277 248.652 214.342 248.873 215.418 248.873H228.386C230.372 248.873 232.284 248.123 233.739 246.773C235.195 245.423 236.087 243.573 236.236 241.593L240.752 181.669C240.752 181.669 251.592 219.41 289.043 235.835C290.231 236.356 291.56 236.458 292.814 236.127C294.068 235.795 295.172 235.048 295.947 234.008L305.564 221.118C306.326 220.099 306.661 218.823 306.499 217.561C306.338 216.299 305.692 215.149 304.698 214.354C296.287 207.622 276.073 190.051 268.548 171.044C261.63 153.575 254.757 137.581 251.374 129.805C250.732 128.335 249.674 127.084 248.331 126.206C246.988 125.328 245.418 124.862 243.813 124.863Z" fill="white" stroke="#59221D" stroke-width="0.782751" stroke-linejoin="round"/>
<path d="M212.722 248.873H229.662V252.15H212.722V248.873Z" fill="white" stroke="#59221D" stroke-width="0.782751" stroke-linejoin="round"/>
<path d="M215.326 248.873V252.15" stroke="#59221D" stroke-width="0.782751" stroke-linejoin="round"/>
<path d="M218.214 248.873V252.15" stroke="#59221D" stroke-width="0.782751" stroke-linejoin="round"/>
<path d="M221.099 248.873V252.15" stroke="#59221D" stroke-width="0.782751" stroke-linejoin="round"/>
<path d="M223.984 248.873V252.15" stroke="#59221D" stroke-width="0.782751" stroke-linejoin="round"/>
<path d="M226.869 248.873V252.15" stroke="#59221D" stroke-width="0.782751" stroke-linejoin="round"/>
<path d="M295.337 234.793L306.006 220.661L308.594 222.614L297.925 236.747L295.337 234.793Z" fill="white" stroke="#59221D" stroke-width="0.782751" stroke-linejoin="round"/>
<path d="M306.898 224.864L304.312 222.911" stroke="#59221D" stroke-width="0.782751" stroke-linejoin="round"/>
<path d="M305.036 227.285L302.449 225.331" stroke="#59221D" stroke-width="0.782751" stroke-linejoin="round"/>
<path d="M303.175 229.705L300.587 227.751" stroke="#59221D" stroke-width="0.782751" stroke-linejoin="round"/>
<path d="M301.312 232.125L298.726 230.171" stroke="#59221D" stroke-width="0.782751" stroke-linejoin="round"/>
<path d="M299.637 234.544L297.051 232.592" stroke="#59221D" stroke-width="0.782751" stroke-linejoin="round"/>
<path d="M240.752 181.669C236.797 174.009 229.88 151.768 226.421 151.768" stroke="#59221D" stroke-width="0.782751" stroke-linecap="round" stroke-linejoin="round"/>
<path d="M218.282 80.9711L249.029 147.942" stroke="#59221D" stroke-width="0.782751" stroke-linecap="round" stroke-linejoin="round"/>
<path d="M253.044 157.263H262.455L259.289 149.481H250.198C249.994 149.482 249.792 149.533 249.612 149.629C249.432 149.726 249.278 149.865 249.164 150.035C249.05 150.205 248.979 150.401 248.958 150.604C248.937 150.808 248.966 151.013 249.043 151.203L250.932 155.848C251.104 156.267 251.397 156.625 251.773 156.877C252.149 157.129 252.592 157.263 253.044 157.263Z" fill="#F5BBBB"/>
<path d="M253.722 155.726H262.284L259.118 147.942H249.026L251.612 154.304C251.783 154.724 252.075 155.083 252.45 155.336C252.826 155.59 253.269 155.725 253.722 155.726V155.726Z" stroke="#59221D" stroke-width="0.782751" stroke-linecap="round" stroke-linejoin="round"/>
<path d="M260.335 150.899H250.243" stroke="#59221D" stroke-width="0.782751" stroke-linecap="round" stroke-linejoin="round"/>
<path d="M287.448 154.408C287.448 154.408 292.547 159.123 300.626 157.828C308.706 156.533 311.538 147.823 310.611 145.105C309.684 142.388 306.541 143.869 306.541 146.34C306.541 146.34 301.768 144.427 300.628 142.798C299.488 141.168 286.768 146.542 287.448 154.408Z" fill="#FFE9BE"/>
<path d="M310.165 148.56C310.165 148.56 309.438 151.937 303.014 149.532" stroke="#59221D" stroke-width="0.782751" stroke-linecap="round" stroke-linejoin="round"/>
<path d="M308.116 152.662C308.116 152.662 306.682 155.732 300.78 153.445" stroke="#59221D" stroke-width="0.782751" stroke-linecap="round" stroke-linejoin="round"/>
<path d="M303.106 156.771C302.112 156.959 299.957 157.285 297.616 156.234" stroke="#59221D" stroke-width="0.782751" stroke-linecap="round" stroke-linejoin="round"/>
<path d="M201.603 108.401L193.4 108.394C192.761 108.393 192.244 107.875 192.244 107.236L192.258 91.6249C192.258 90.986 192.777 90.4684 193.416 90.469L201.619 90.4762C202.258 90.4767 202.775 90.9951 202.775 91.6341L202.761 107.245C202.761 107.884 202.242 108.402 201.603 108.401Z" fill="#59221D"/>
<path d="M186.445 105.554C189.222 111.516 194.231 112.643 198.186 111.835L201.462 111.165C202.424 110.886 203.264 110.292 203.849 109.48C204.434 108.667 204.729 107.682 204.689 106.682L204.283 96.75C204.268 96.3512 204.104 95.9727 203.823 95.6886C203.543 95.4046 203.167 95.2354 202.768 95.2142V96.2005C202.767 96.837 202.517 97.4479 202.072 97.9024C201.626 98.3568 201.02 98.6186 200.384 98.6317L194.735 98.7476H194.685C193.342 98.7476 192.251 97.2979 192.251 95.9485L188.935 96.0722C187.955 96.1082 186.733 96.8893 186.615 98.0149L186.445 105.554Z" fill="#FFE9BE"/>
<path d="M203.739 98.7163C203.823 100.775 201.447 101.58 199.125 101.847" stroke="#59221D" stroke-width="0.782751" stroke-miterlimit="10" stroke-linecap="round"/>
<path d="M203.83 101.897C203.914 103.956 201.538 104.762 199.216 105.028" stroke="#59221D" stroke-width="0.782751" stroke-miterlimit="10" stroke-linecap="round"/>
<path d="M204.08 105.198C204.163 107.256 201.788 107.951 199.465 108.217" stroke="#59221D" stroke-width="0.782751" stroke-miterlimit="10" stroke-linecap="round"/>
<path d="M200.774 93.1274C200.437 93.1274 200.163 92.8541 200.163 92.5169C200.163 92.1797 200.437 91.9063 200.774 91.9063C201.111 91.9063 201.384 92.1797 201.384 92.5169C201.384 92.8541 201.111 93.1274 200.774 93.1274Z" fill="#98C8DB"/>
<path d="M200.592 93.1274C200.255 93.1274 199.982 92.8541 199.982 92.5169C199.982 92.1797 200.255 91.9063 200.592 91.9063C200.929 91.9063 201.203 92.1797 201.203 92.5169C201.203 92.8541 200.929 93.1274 200.592 93.1274Z" fill="#98C8DB"/>
<path d="M259.244 76.5759H207.427C207.427 76.5759 203.261 73.1041 205.338 68.3416C207.415 63.579 217.406 61.2831 217.521 53.1077C217.636 44.9323 225.295 38.5719 234.505 41.9041C243.153 45.0284 239.866 55.2702 244.502 58.4442C249.138 61.6182 263.007 62.7692 259.244 76.5759Z" fill="#59221D"/>
<path d="M227.74 76.5805H238.034L236.428 71.2265H228.856L227.74 76.5805Z" fill="#FFE9BE"/>
<path d="M227.735 76.5783H228.896C229.997 76.5782 231.083 76.3206 232.066 75.8261C233.05 75.3317 233.904 74.6141 234.56 73.7307L236.423 71.2259H228.851L227.735 76.5783Z" fill="#59221D"/>
<path d="M219.304 63.0465C220.095 68.4722 222.028 75.935 226.651 75.935C231.54 75.935 236.008 72.1627 237.817 70.3929H242.072C243.236 70.3618 244.343 69.8697 245.155 69.0215C245.968 68.1734 246.423 67.0361 246.423 65.8521C246.423 64.6681 245.968 63.5308 245.155 62.6826C244.343 61.8345 243.236 61.3424 242.072 61.3112H238.671C238.671 61.3112 225.862 61.195 222.015 53.8202C220.924 55.0607 220.115 56.5307 219.646 58.1255C219.177 59.7203 219.06 61.4005 219.304 63.0465Z" fill="#FFE9BE"/>
<path d="M240.182 62.9376C240.182 62.6089 240.247 62.2834 240.373 61.9798C240.499 61.6761 240.683 61.4003 240.916 61.168C241.149 60.9357 241.425 60.7516 241.728 60.6261C242.032 60.5006 242.358 60.4362 242.687 60.4366" stroke="#59221D" stroke-width="0.469651" stroke-miterlimit="10" stroke-linecap="round"/>
<path d="M220.153 61.1831C220.153 61.1831 222.834 60.2076 224.403 62.227C225.438 63.5567 225.901 68.0553 225.233 69.0028" stroke="#59221D" stroke-width="0.469651" stroke-miterlimit="10" stroke-linecap="round"/>
<path d="M230.141 65.6442C229.697 65.6442 229.336 65.1518 229.336 64.5444C229.336 63.937 229.697 63.4446 230.141 63.4446C230.586 63.4446 230.946 63.937 230.946 64.5444C230.946 65.1518 230.586 65.6442 230.141 65.6442Z" fill="#59221D"/>
<path d="M222.269 65.6442C221.825 65.6442 221.464 65.1518 221.464 64.5444C221.464 63.937 221.825 63.4446 222.269 63.4446C222.713 63.4446 223.074 63.937 223.074 64.5444C223.074 65.1518 222.713 65.6442 222.269 65.6442Z" fill="#59221D"/>
<path d="M225.164 71.6186C225.164 71.6186 227.74 72.1623 228.893 70.2361" stroke="#59221D" stroke-width="0.469651" stroke-miterlimit="10" stroke-linecap="round"/>
<path d="M7 20.6105V20.4206C8.26559 17.106 11.6631 14.7318 15.6573 14.7318C16.858 14.7296 18.0488 14.9491 19.1699 15.3792C19.6489 15.5646 20.1678 15.2266 20.1672 14.7464V14.7343C20.1666 13.711 20.3625 12.697 20.7443 11.7475C22.046 8.49687 25.4093 6.18274 29.3548 6.18274C33.3002 6.18274 36.6623 8.49687 37.9608 11.7463C37.9905 11.8197 38.0196 11.8943 38.0468 11.9697C38.1582 11.8929 38.2711 11.8184 38.3854 11.7463C39.9304 10.7887 41.712 10.2814 43.5297 10.2814C45.3474 10.2814 47.129 10.7887 48.674 11.7463C51.1134 13.284 52.7163 15.8835 52.7163 18.8336V18.8462C52.7163 19.2481 53.2225 19.474 53.5522 19.2164C55.3873 17.7933 57.8464 16.9232 60.5509 16.9232C64.0541 16.9232 67.1465 18.3837 69 20.6136" stroke="white" stroke-width="0.416377" stroke-miterlimit="10" stroke-linecap="round"/>
<path d="M43.3824 22.8788C40.8221 21.1981 37.6531 21.2677 35.4237 22.8225C35.3725 22.858 35.3219 22.894 35.2725 22.9314C35.2333 22.8339 35.1911 22.7375 35.1459 22.6422C34.5514 21.3626 33.6115 20.2744 32.432 19.5C31.2526 18.7256 29.8804 18.2957 28.47 18.2588C26.2311 18.2183 24.0834 19.2226 22.8273 21.1368L22.8223 21.1444" stroke="white" stroke-width="0.416377" stroke-miterlimit="10" stroke-linecap="round"/>
<path d="M97 33.9967V33.7994C98.3155 30.3541 101.847 27.8862 105.999 27.8862C107.247 27.8839 108.485 28.112 109.65 28.5591C110.148 28.7518 110.687 28.4006 110.686 27.9013V27.8888C110.686 26.8251 110.889 25.7712 111.286 24.7843C112.639 21.4054 116.135 19 120.236 19C124.337 19 127.832 21.4054 129.182 24.7829C129.213 24.8592 129.243 24.9369 129.271 25.0151C129.387 24.9353 129.504 24.8579 129.623 24.7829C131.229 23.7876 133.081 23.2603 134.97 23.2603C136.86 23.2603 138.712 23.7876 140.317 24.7829C142.853 26.3813 144.519 29.0833 144.519 32.1497V32.1629C144.519 32.5806 145.045 32.8154 145.388 32.5477C147.296 31.0684 149.852 30.164 152.663 30.164C156.304 30.164 159.519 31.6821 161.445 34" stroke="white" stroke-width="0.42121" stroke-miterlimit="10" stroke-linecap="round"/>
<path d="M137.043 28.0749C134.334 26.5721 131.142 26.8809 129.01 28.6171C128.961 28.6567 128.913 28.6969 128.866 28.7383C128.819 28.643 128.769 28.5489 128.717 28.4561C128.02 27.21 126.99 26.183 125.742 25.4906C124.494 24.7981 123.078 24.4678 121.652 24.5367C119.39 24.6644 117.299 25.8391 116.176 27.8647L116.172 27.8728" stroke="white" stroke-width="0.42121" stroke-miterlimit="10" stroke-linecap="round"/>
<path d="M187 12.9541V12.7968C188.049 10.0505 190.864 8.08331 194.173 8.08331C195.168 8.08148 196.154 8.26331 197.083 8.61967C197.48 8.77329 197.91 8.49331 197.91 8.09537V8.08541C197.909 7.2375 198.071 6.39738 198.388 5.61071C199.466 2.91737 202.253 1 205.522 1C208.791 1 211.577 2.91737 212.652 5.60966C212.677 5.67048 212.701 5.73234 212.724 5.79473C212.816 5.73112 212.91 5.66943 213.004 5.60966C214.284 4.81628 215.761 4.39594 217.267 4.39594C218.773 4.39594 220.249 4.81628 221.529 5.60966C223.55 6.88371 224.878 9.03754 224.878 11.4818V11.4923C224.878 11.8252 225.298 12.0124 225.571 11.799C227.091 10.6199 229.129 9.89896 231.37 9.89896C234.272 9.89896 236.834 11.1091 238.37 12.9567" stroke="white" stroke-width="0.335751" stroke-miterlimit="10" stroke-linecap="round"/>
<path d="M218.919 8.23361C216.76 7.03573 214.215 7.28185 212.516 8.66586C212.477 8.69743 212.438 8.72947 212.401 8.76246C212.364 8.68645 212.324 8.61147 212.282 8.53751C211.727 7.54425 210.906 6.72558 209.911 6.17363C208.916 5.62167 207.787 5.35835 206.65 5.41329C204.848 5.51506 203.181 6.45147 202.286 8.06611L202.282 8.07252" stroke="white" stroke-width="0.335751" stroke-miterlimit="10" stroke-linecap="round"/>
<path d="M262 40.9541V40.7968C263.049 38.0505 265.864 36.0833 269.173 36.0833C270.168 36.0815 271.154 36.2633 272.083 36.6197C272.48 36.7733 272.91 36.4933 272.91 36.0954V36.0854C272.909 35.2375 273.071 34.3974 273.388 33.6107C274.466 30.9174 277.253 29 280.522 29C283.791 29 286.577 30.9174 287.652 33.6097C287.677 33.6705 287.701 33.7323 287.724 33.7947C287.816 33.7311 287.91 33.6694 288.004 33.6097C289.284 32.8163 290.761 32.3959 292.267 32.3959C293.773 32.3959 295.249 32.8163 296.529 33.6097C298.55 34.8837 299.878 37.0375 299.878 39.4818V39.4923C299.878 39.8252 300.298 40.0124 300.571 39.799C302.091 38.6199 304.129 37.899 306.37 37.899C309.272 37.899 311.834 39.1091 313.37 40.9567" stroke="white" stroke-width="0.335751" stroke-miterlimit="10" stroke-linecap="round"/>
<path d="M293.919 36.2337C291.76 35.0358 289.215 35.2819 287.516 36.6659C287.477 36.6975 287.438 36.7296 287.401 36.7625C287.364 36.6865 287.324 36.6115 287.282 36.5376C286.727 35.5443 285.906 34.7257 284.911 34.1737C283.916 33.6218 282.787 33.3584 281.65 33.4134C279.848 33.5151 278.181 34.4515 277.286 36.0662L277.282 36.0726" stroke="white" stroke-width="0.335751" stroke-miterlimit="10" stroke-linecap="round"/>
</svg>
