<svg width="1817" height="171" viewBox="0 0 1817 171" fill="none" xmlns="http://www.w3.org/2000/svg">
<path d="M1 35.6506V35.1947C4.03953 27.2342 12.1991 21.532 21.7919 21.532C24.6757 21.5267 27.5357 22.0538 30.2281 23.0867C31.3786 23.532 32.6248 22.7205 32.6233 21.567V21.5381C32.6217 19.0803 33.0923 16.6451 34.0093 14.3648C37.1354 6.55778 45.213 1 54.6887 1C64.1645 1 72.239 6.55778 75.3575 14.3618C75.429 14.5381 75.4989 14.7174 75.5642 14.8982C75.8317 14.7139 76.1027 14.535 76.3773 14.3618C80.0879 12.0621 84.3667 10.8436 88.7322 10.8436C93.0977 10.8436 97.3765 12.0621 101.087 14.3618C106.946 18.0548 110.795 24.298 110.795 31.3831V31.4135C110.795 32.3786 112.011 32.9211 112.803 32.3026C117.21 28.8846 123.116 26.795 129.612 26.795C138.025 26.795 145.452 30.3026 149.903 35.6582" stroke="white" stroke-miterlimit="10" stroke-linecap="round"/>
<path d="M88.3787 41.0986C82.2297 37.0621 74.6187 37.2293 69.2646 40.9634C69.1415 41.0485 69.0199 41.1351 68.9014 41.2248C68.8071 40.9907 68.7058 40.7592 68.5974 40.5302C67.1695 37.4572 64.9121 34.8436 62.0795 32.9837C59.2469 31.1239 55.9514 30.0915 52.5639 30.0028C47.187 29.9056 42.0289 32.3174 39.0122 36.9147L39 36.933" stroke="white" stroke-miterlimit="10" stroke-linecap="round"/>
<path d="M370 113.127V112.659C373.123 104.479 381.507 98.6201 391.364 98.6201C394.327 98.6146 397.266 99.1562 400.032 100.218C401.214 100.675 402.495 99.8412 402.493 98.656V98.6263C402.492 96.1009 402.975 93.5987 403.917 91.2557C407.13 83.2339 415.429 77.5232 425.166 77.5232C434.902 77.5232 443.199 83.2339 446.403 91.2526C446.477 91.4337 446.548 91.618 446.616 91.8038C446.89 91.6143 447.169 91.4306 447.451 91.2526C451.264 88.8896 455.66 87.6376 460.146 87.6376C464.631 87.6376 469.028 88.8896 472.841 91.2526C478.861 95.0472 482.816 101.462 482.816 108.742V108.773C482.816 109.765 484.065 110.323 484.879 109.687C489.407 106.175 495.476 104.028 502.15 104.028C510.795 104.028 518.426 107.632 523 113.135" stroke="white" stroke-miterlimit="10" stroke-linecap="round"/>
<path d="M465.068 99.0678C458.635 95.5001 451.058 96.2331 445.996 100.355C445.88 100.449 445.765 100.545 445.654 100.643C445.542 100.417 445.424 100.193 445.299 99.973C443.646 97.0147 441.201 94.5763 438.238 92.9324C435.274 91.2885 431.911 90.5042 428.527 90.6678C423.157 90.9709 418.193 93.7599 415.527 98.569L415.516 98.5881" stroke="white" stroke-miterlimit="10" stroke-linecap="round"/>
<path d="M1348 116.604V116.135C1351.12 107.956 1359.51 102.097 1369.36 102.097C1372.33 102.091 1375.27 102.633 1378.03 103.694C1379.21 104.152 1380.49 103.318 1380.49 102.133V102.103C1380.49 99.5777 1380.98 97.0755 1381.92 94.7325C1385.13 86.7107 1393.43 81 1403.17 81C1412.9 81 1421.2 86.7107 1424.4 94.7294C1424.48 94.9105 1424.55 95.0948 1424.62 95.2806C1424.89 95.0911 1425.17 94.9074 1425.45 94.7294C1429.26 92.3664 1433.66 91.1145 1438.15 91.1145C1442.63 91.1145 1447.03 92.3664 1450.84 94.7294C1456.86 98.524 1460.82 104.939 1460.82 112.219V112.25C1460.82 113.242 1462.07 113.799 1462.88 113.164C1467.41 109.652 1473.48 107.505 1480.15 107.505C1488.79 107.505 1496.43 111.109 1501 116.612" stroke="white" stroke-miterlimit="10" stroke-linecap="round"/>
<path d="M1443.07 102.545C1436.64 98.9769 1429.06 99.7099 1424 103.832C1423.88 103.926 1423.77 104.022 1423.65 104.12C1423.54 103.893 1423.42 103.67 1423.3 103.45C1421.65 100.491 1419.2 98.0531 1416.24 96.4092C1413.27 94.7653 1409.91 93.981 1406.53 94.1446C1401.16 94.4477 1396.19 97.2367 1393.53 102.046L1393.52 102.065" stroke="white" stroke-miterlimit="10" stroke-linecap="round"/>
<path d="M1663 49.6039V49.1354C1666.12 40.9559 1674.51 35.0969 1684.36 35.0969C1687.33 35.0914 1690.27 35.633 1693.03 36.6944C1694.21 37.1519 1695.49 36.318 1695.49 35.1328V35.1031C1695.49 32.5777 1695.98 30.0755 1696.92 27.7325C1700.13 19.7107 1708.43 14 1718.17 14C1727.9 14 1736.2 19.7107 1739.4 27.7294C1739.48 27.9105 1739.55 28.0948 1739.62 28.2806C1739.89 28.0911 1740.17 27.9074 1740.45 27.7294C1744.26 25.3664 1748.66 24.1145 1753.15 24.1145C1757.63 24.1145 1762.03 25.3664 1765.84 27.7294C1771.86 31.524 1775.82 37.9389 1775.82 45.219V45.2502C1775.82 46.2418 1777.07 46.7993 1777.88 46.1638C1782.41 42.6518 1788.48 40.5046 1795.15 40.5046C1803.79 40.5046 1811.43 44.1087 1816 49.6117" stroke="white" stroke-miterlimit="10" stroke-linecap="round"/>
<path d="M1758.07 35.5446C1751.64 31.9769 1744.06 32.7099 1739 36.8321C1738.88 36.9261 1738.77 37.0215 1738.65 37.1198C1738.54 36.8934 1738.42 36.6701 1738.3 36.4498C1736.65 33.4915 1734.2 31.0531 1731.24 29.4092C1728.27 27.7653 1724.91 26.981 1721.53 27.1446C1716.16 27.4477 1711.19 30.2367 1708.53 35.0458L1708.52 35.0649" stroke="white" stroke-miterlimit="10" stroke-linecap="round"/>
<path d="M1653 169.604V169.135C1656.12 160.956 1664.51 155.097 1674.36 155.097C1677.33 155.091 1680.27 155.633 1683.03 156.694C1684.21 157.152 1685.49 156.318 1685.49 155.133V155.103C1685.49 152.578 1685.98 150.076 1686.92 147.732C1690.13 139.711 1698.43 134 1708.17 134C1717.9 134 1726.2 139.711 1729.4 147.729C1729.48 147.911 1729.55 148.095 1729.62 148.281C1729.89 148.091 1730.17 147.907 1730.45 147.729C1734.26 145.366 1738.66 144.114 1743.15 144.114C1747.63 144.114 1752.03 145.366 1755.84 147.729C1761.86 151.524 1765.82 157.939 1765.82 165.219V165.25C1765.82 166.242 1767.07 166.799 1767.88 166.164C1772.41 162.652 1778.48 160.505 1785.15 160.505C1793.79 160.505 1801.43 164.109 1806 169.612" stroke="white" stroke-miterlimit="10" stroke-linecap="round"/>
<path d="M1748.07 155.545C1741.64 151.977 1734.06 152.71 1729 156.832C1728.88 156.926 1728.77 157.022 1728.65 157.12C1728.54 156.893 1728.42 156.67 1728.3 156.45C1726.65 153.491 1724.2 151.053 1721.24 149.409C1718.27 147.765 1714.91 146.981 1711.53 147.145C1706.16 147.448 1701.19 150.237 1698.53 155.046L1698.52 155.065" stroke="white" stroke-miterlimit="10" stroke-linecap="round"/>
</svg>
