<svg width="308" height="42" viewBox="0 0 308 42" fill="none" xmlns="http://www.w3.org/2000/svg">
<path d="M1 20.6105V20.4206C2.26559 17.106 5.66307 14.7318 9.65727 14.7318C10.858 14.7296 12.0488 14.9491 13.1699 15.3792C13.6489 15.5646 14.1678 15.2266 14.1672 14.7464V14.7343C14.1666 13.711 14.3625 12.697 14.7443 11.7475C16.046 8.49687 19.4093 6.18274 23.3548 6.18274C27.3002 6.18274 30.6623 8.49687 31.9608 11.7463C31.9905 11.8197 32.0196 11.8943 32.0468 11.9697C32.1582 11.8929 32.2711 11.8184 32.3854 11.7463C33.9304 10.7887 35.712 10.2814 37.5297 10.2814C39.3474 10.2814 41.129 10.7887 42.674 11.7463C45.1134 13.284 46.7163 15.8835 46.7163 18.8336V18.8462C46.7163 19.2481 47.2225 19.474 47.5522 19.2164C49.3873 17.7933 51.8464 16.9232 54.5509 16.9232C58.0541 16.9232 61.1465 18.3837 63 20.6136" stroke="white" stroke-width="0.416377" stroke-miterlimit="10" stroke-linecap="round"/>
<path d="M37.3824 22.8788C34.8221 21.1981 31.6531 21.2677 29.4237 22.8225C29.3725 22.858 29.3219 22.894 29.2725 22.9314C29.2333 22.8339 29.1911 22.7375 29.1459 22.6422C28.5514 21.3626 27.6115 20.2744 26.432 19.5C25.2526 18.7256 23.8804 18.2957 22.47 18.2588C20.2311 18.2183 18.0834 19.2226 16.8273 21.1368L16.8223 21.1444" stroke="white" stroke-width="0.416377" stroke-miterlimit="10" stroke-linecap="round"/>
<path d="M91 33.9967V33.7994C92.3155 30.3541 95.847 27.8862 99.9987 27.8862C101.247 27.8839 102.485 28.112 103.65 28.5591C104.148 28.7518 104.687 28.4006 104.686 27.9013V27.8888C104.686 26.8251 104.889 25.7712 105.286 24.7843C106.639 21.4054 110.135 19 114.236 19C118.337 19 121.832 21.4054 123.182 24.7829C123.213 24.8592 123.243 24.9369 123.271 25.0151C123.387 24.9353 123.504 24.8579 123.623 24.7829C125.229 23.7876 127.081 23.2603 128.97 23.2603C130.86 23.2603 132.712 23.7876 134.317 24.7829C136.853 26.3813 138.519 29.0833 138.519 32.1497V32.1629C138.519 32.5806 139.045 32.8154 139.388 32.5477C141.296 31.0684 143.852 30.164 146.663 30.164C150.304 30.164 153.519 31.6821 155.445 34" stroke="white" stroke-width="0.42121" stroke-miterlimit="10" stroke-linecap="round"/>
<path d="M131.044 28.0749C128.334 26.5721 125.143 26.8809 123.011 28.6171C122.962 28.6567 122.913 28.6969 122.866 28.7383C122.819 28.643 122.77 28.5489 122.717 28.4561C122.021 27.21 120.991 26.183 119.742 25.4906C118.494 24.7981 117.078 24.4678 115.652 24.5367C113.391 24.6644 111.299 25.8391 110.176 27.8647L110.172 27.8728" stroke="white" stroke-width="0.42121" stroke-miterlimit="10" stroke-linecap="round"/>
<path d="M181 12.9541V12.7968C182.049 10.0505 184.864 8.08331 188.173 8.08331C189.168 8.08148 190.154 8.26331 191.083 8.61967C191.48 8.77329 191.91 8.49331 191.91 8.09537V8.08541C191.909 7.2375 192.071 6.39738 192.388 5.61071C193.466 2.91737 196.253 1 199.522 1C202.791 1 205.577 2.91737 206.652 5.60966C206.677 5.67048 206.701 5.73234 206.724 5.79473C206.816 5.73112 206.91 5.66943 207.004 5.60966C208.284 4.81628 209.761 4.39594 211.267 4.39594C212.773 4.39594 214.249 4.81628 215.529 5.60966C217.55 6.88371 218.878 9.03754 218.878 11.4818V11.4923C218.878 11.8252 219.298 12.0124 219.571 11.799C221.091 10.6199 223.129 9.89896 225.37 9.89896C228.272 9.89896 230.834 11.1091 232.37 12.9567" stroke="white" stroke-width="0.335751" stroke-miterlimit="10" stroke-linecap="round"/>
<path d="M212.919 8.23361C210.76 7.03573 208.215 7.28185 206.516 8.66586C206.477 8.69743 206.438 8.72947 206.401 8.76246C206.364 8.68645 206.324 8.61147 206.282 8.53751C205.727 7.54425 204.906 6.72558 203.911 6.17363C202.916 5.62167 201.787 5.35835 200.65 5.41329C198.848 5.51506 197.181 6.45147 196.286 8.06611L196.282 8.07252" stroke="white" stroke-width="0.335751" stroke-miterlimit="10" stroke-linecap="round"/>
<path d="M256 40.9541V40.7968C257.049 38.0505 259.864 36.0833 263.173 36.0833C264.168 36.0815 265.154 36.2633 266.083 36.6197C266.48 36.7733 266.91 36.4933 266.91 36.0954V36.0854C266.909 35.2375 267.071 34.3974 267.388 33.6107C268.466 30.9174 271.253 29 274.522 29C277.791 29 280.577 30.9174 281.652 33.6097C281.677 33.6705 281.701 33.7323 281.724 33.7947C281.816 33.7311 281.91 33.6694 282.004 33.6097C283.284 32.8163 284.761 32.3959 286.267 32.3959C287.773 32.3959 289.249 32.8163 290.529 33.6097C292.55 34.8837 293.878 37.0375 293.878 39.4818V39.4923C293.878 39.8252 294.298 40.0124 294.571 39.799C296.091 38.6199 298.129 37.899 300.37 37.899C303.272 37.899 305.834 39.1091 307.37 40.9567" stroke="white" stroke-width="0.335751" stroke-miterlimit="10" stroke-linecap="round"/>
<path d="M287.919 36.2337C285.76 35.0358 283.215 35.2819 281.516 36.6659C281.477 36.6975 281.438 36.7296 281.401 36.7625C281.364 36.6865 281.324 36.6115 281.282 36.5376C280.727 35.5443 279.906 34.7257 278.911 34.1737C277.916 33.6218 276.787 33.3584 275.65 33.4134C273.848 33.5151 272.181 34.4515 271.286 36.0662L271.282 36.0726" stroke="white" stroke-width="0.335751" stroke-miterlimit="10" stroke-linecap="round"/>
</svg>
