<svg width="611" height="375" viewBox="0 0 611 375" fill="none" xmlns="http://www.w3.org/2000/svg">
<path d="M268.789 63.8302V75.3241H242.919L253.609 56.5687L268.789 63.8302Z" fill="white" stroke="#193743" stroke-width="0.759882" stroke-linecap="round" stroke-linejoin="round"/>
<path d="M268.789 75.3242V63.8302L253.913 56.5748V59.1721C253.914 60.8328 254.309 62.4696 255.067 63.9471C255.826 65.4246 256.925 66.7004 258.274 67.6691L268.789 75.3242Z" fill="#008760"/>
<path d="M239.458 36.2591V24.1341C239.458 21.2933 240.262 18.5103 241.776 16.1072C243.291 13.704 245.455 11.7787 248.019 10.554L265.216 2.32922C266.979 1.4874 268.901 1.03473 270.854 1.00192C272.807 0.969114 274.744 1.35695 276.534 2.13909C278.324 2.92123 279.924 4.07936 281.227 5.53482C282.529 6.99028 283.503 8.709 284.083 10.5742L285.699 15.8284L239.458 36.2591Z" fill="white" stroke="#193743" stroke-width="0.759882" stroke-linecap="round" stroke-linejoin="round"/>
<path d="M239.458 36.2591L302.282 8.48877" stroke="#193743" stroke-width="0.759882" stroke-linecap="round" stroke-linejoin="round"/>
<path d="M239.207 54.6889H247.448L248.932 59.644C249.481 61.485 250.612 63.0991 252.153 64.2455C253.695 65.3919 255.566 66.0093 257.488 66.0056H279.454C281.002 66.0054 282.533 65.6767 283.944 65.0414C285.356 64.4061 286.617 63.4786 287.644 62.32C288.67 61.1615 289.44 59.7983 289.901 58.3206C290.362 56.8428 290.504 55.284 290.318 53.7472L285.735 15.8403L241.636 35.204H239.211C236.646 35.2028 234.184 36.2135 232.36 38.0168C230.535 39.8201 229.496 42.2702 229.467 44.8353C229.452 46.1238 229.694 47.4023 230.177 48.5969C230.66 49.7915 231.375 50.8785 232.281 51.7949C233.187 52.7113 234.265 53.4389 235.454 53.9357C236.643 54.4324 237.919 54.6885 239.207 54.6889Z" fill="#FFE9BE" stroke="#193743" stroke-width="0.759882" stroke-linecap="round" stroke-linejoin="round"/>
<path d="M241.491 35.4035C241.491 35.7375 243.548 36.8406 243.93 37.2225C244.251 37.5446 244.507 37.9269 244.68 38.3476C244.854 38.7683 244.943 39.2191 244.943 39.6743V45.0983H245.998C247.391 45.0983 248.728 44.5447 249.713 43.5594C250.698 42.574 251.252 41.2376 251.252 39.8441V37.7384C251.253 36.4599 251.586 35.2036 252.22 34.0931C252.853 32.9827 253.765 32.0563 254.865 31.4051L263.536 25.717L241.491 35.4035Z" fill="#193743"/>
<path d="M286.587 26.6966C286.587 26.6966 276.754 25.3265 275.541 30.0755C274.786 33.0218 283.98 47.8022 276.944 47.8022" stroke="#193743" stroke-width="0.759882" stroke-miterlimit="10" stroke-linecap="round"/>
<path d="M266.064 40.4547C267.127 40.4547 267.988 39.2803 267.988 37.8317C267.988 36.383 267.127 35.2086 266.064 35.2086C265.002 35.2086 264.141 36.383 264.141 37.8317C264.141 39.2803 265.002 40.4547 266.064 40.4547Z" fill="#193743"/>
<path d="M283.997 40.4547C285.06 40.4547 285.921 39.2803 285.921 37.8317C285.921 36.383 285.06 35.2086 283.997 35.2086C282.935 35.2086 282.073 36.383 282.073 37.8317C282.073 39.2803 282.935 40.4547 283.997 40.4547Z" fill="#193743"/>
<path d="M241.588 45.0978C241.588 43.7526 241.053 42.4624 240.102 41.5112C239.151 40.5599 237.861 40.0255 236.515 40.0255" stroke="#193743" stroke-width="0.759882" stroke-miterlimit="10" stroke-linecap="round"/>
<path d="M275.51 53.6385C275.51 53.6385 267.426 53.6385 267.471 49.6696" stroke="#193743" stroke-width="0.759882" stroke-miterlimit="10" stroke-linecap="round"/>
<path d="M324.83 125.689C323.183 124.452 322.059 122.643 321.677 120.618L317.102 96.5586C315.952 90.5825 312.755 85.1939 308.062 81.3188C303.37 77.4437 297.474 75.3242 291.388 75.3245H224.366C218.055 75.3246 211.84 76.8679 206.262 79.8197C200.684 82.7716 195.913 87.0427 192.363 92.2607L164.415 133.345C160.494 139.111 159.039 145.503 159.565 151.591C160.486 162.269 169.554 170.406 180.272 170.406H183.824L205.319 144.305C203.287 143.86 202.26 142.018 203.322 140.424L215.983 121.427C218.074 118.291 222.836 118.843 224.16 122.366L239.053 160.5C239.053 160.5 300.657 160.5 300.658 160.512L324.83 125.689Z" fill="white" stroke="#193743" stroke-width="0.759882" stroke-miterlimit="10"/>
<path d="M190.461 100.689L185.775 105.374L190.461 110.06L195.146 105.374L190.461 100.689Z" fill="#00A878"/>
<path d="M186.789 105.376L182.103 110.062L181.001 108.96L184.795 103.382L186.283 104.87L186.789 105.376Z" fill="#00A878"/>
<path d="M198.819 100.688L194.134 105.374L198.819 110.059L203.505 105.374L198.819 100.688Z" fill="#00A878"/>
<path d="M207.33 100.689L202.644 105.374L207.33 110.06L212.015 105.374L207.33 100.689Z" fill="#00A878"/>
<path d="M215.689 100.689L211.003 105.374L215.689 110.06L220.374 105.374L215.689 100.689Z" fill="#00A878"/>
<path d="M224.047 100.688L219.362 105.374L224.047 110.059L228.733 105.374L224.047 100.688Z" fill="#00A878"/>
<path d="M232.406 100.688L227.721 105.374L232.406 110.059L237.092 105.374L232.406 100.688Z" fill="#00A878"/>
<path d="M240.917 100.689L236.231 105.374L240.917 110.06L245.602 105.374L240.917 100.689Z" fill="#00A878"/>
<path d="M249.275 100.688L244.59 105.374L249.276 110.059L253.961 105.374L249.275 100.688Z" fill="#00A878"/>
<path d="M257.483 100.69L252.798 105.375L257.483 110.06L262.168 105.375L257.483 100.69Z" fill="#00A878"/>
<path d="M265.842 100.689L261.156 105.375L265.842 110.06L270.527 105.375L265.842 100.689Z" fill="#00A878"/>
<path d="M274.352 100.69L269.667 105.375L274.352 110.06L279.037 105.375L274.352 100.69Z" fill="#00A878"/>
<path d="M282.711 100.69L278.025 105.375L282.711 110.06L287.396 105.375L282.711 100.69Z" fill="#00A878"/>
<path d="M291.07 100.689L286.384 105.375L291.07 110.06L295.755 105.375L291.07 100.689Z" fill="#00A878"/>
<path d="M299.429 100.689L294.743 105.375L299.429 110.06L304.114 105.375L299.429 100.689Z" fill="#00A878"/>
<path d="M307.939 100.69L303.254 105.375L307.939 110.06L312.624 105.375L307.939 100.69Z" fill="#00A878"/>
<path d="M319.131 107.229L316.298 110.062L311.613 105.376L316.298 100.691L316.577 100.969L318.262 102.654L319.131 107.229Z" fill="#00A878"/>
<path d="M195.147 96.5615L190.462 101.247L187.954 98.7393L191.748 93.1617L194.641 96.0554L195.147 96.5615Z" fill="#00A878"/>
<path d="M198.821 91.875L194.135 96.5604L198.821 101.246L203.506 96.5604L198.821 91.875Z" fill="#00A878"/>
<path d="M207.331 91.8739L202.646 96.5593L207.331 101.245L212.017 96.5593L207.331 91.8739Z" fill="#00A878"/>
<path d="M215.69 91.8737L211.004 96.5591L215.69 101.244L220.375 96.5591L215.69 91.8737Z" fill="#00A878"/>
<path d="M224.049 91.875L219.363 96.5604L224.049 101.246L228.734 96.5604L224.049 91.875Z" fill="#00A878"/>
<path d="M232.406 91.875L227.72 96.5604L232.406 101.246L237.091 96.5604L232.406 91.875Z" fill="#00A878"/>
<path d="M240.918 91.8737L236.232 96.5591L240.918 101.244L245.603 96.5591L240.918 91.8737Z" fill="#00A878"/>
<path d="M249.277 91.875L244.591 96.5604L249.277 101.246L253.962 96.5604L249.277 91.875Z" fill="#00A878"/>
<path d="M257.483 91.8746L252.797 96.5601L257.483 101.245L262.168 96.5601L257.483 91.8746Z" fill="#00A878"/>
<path d="M265.841 91.8744L261.156 96.5598L265.841 101.245L270.527 96.5598L265.841 91.8744Z" fill="#00A878"/>
<path d="M274.352 91.8748L269.666 96.5602L274.352 101.246L279.037 96.5602L274.352 91.8748Z" fill="#00A878"/>
<path d="M282.711 91.8746L278.025 96.5601L282.711 101.245L287.396 96.5601L282.711 91.8746Z" fill="#00A878"/>
<path d="M291.069 91.8744L286.384 96.5598L291.069 101.245L295.755 96.5598L291.069 91.8744Z" fill="#00A878"/>
<path d="M299.428 91.8744L294.743 96.5598L299.428 101.245L304.114 96.5598L299.428 91.8744Z" fill="#00A878"/>
<path d="M307.939 91.8746L303.253 96.5601L307.939 101.245L312.624 96.5601L307.939 91.8746Z" fill="#00A878"/>
<path d="M317.723 99.823L316.298 101.247L311.613 96.5616L315.896 92.2789C316.418 93.6688 316.822 95.1005 317.102 96.5586L317.723 99.823Z" fill="#00A878"/>
<path d="M203.509 87.8988L198.824 92.5842L195.024 88.7848C196.467 87.1066 198.051 85.5557 199.76 84.1495L203.077 87.4672L203.509 87.8988Z" fill="#00A878"/>
<path d="M207.33 83.2118L202.645 87.8972L207.33 92.5826L212.016 87.8972L207.33 83.2118Z" fill="#00A878"/>
<path d="M215.689 83.2118L211.003 87.8972L215.689 92.5826L220.374 87.8972L215.689 83.2118Z" fill="#00A878"/>
<path d="M224.048 83.2116L219.362 87.897L224.048 92.5824L228.733 87.897L224.048 83.2116Z" fill="#00A878"/>
<path d="M232.407 83.2116L227.721 87.897L232.407 92.5824L237.092 87.897L232.407 83.2116Z" fill="#00A878"/>
<path d="M240.917 83.2118L236.232 87.8972L240.917 92.5826L245.603 87.8972L240.917 83.2118Z" fill="#00A878"/>
<path d="M249.276 83.2116L244.591 87.897L249.276 92.5824L253.961 87.897L249.276 83.2116Z" fill="#00A878"/>
<path d="M257.483 83.2112L252.798 87.8966L257.483 92.582L262.168 87.8966L257.483 83.2112Z" fill="#00A878"/>
<path d="M265.842 83.2125L261.156 87.8979L265.842 92.5834L270.527 87.898L265.842 83.2125Z" fill="#00A878"/>
<path d="M274.352 83.2114L269.667 87.8969L274.352 92.5823L279.038 87.8969L274.352 83.2114Z" fill="#00A878"/>
<path d="M282.711 83.2112L278.026 87.8966L282.711 92.582L287.397 87.8966L282.711 83.2112Z" fill="#00A878"/>
<path d="M291.07 83.211L286.385 87.8964L291.07 92.5818L295.756 87.8964L291.07 83.211Z" fill="#00A878"/>
<path d="M299.429 83.2125L294.743 87.8979L299.429 92.5834L304.114 87.898L299.429 83.2125Z" fill="#00A878"/>
<path d="M307.939 83.2112L303.254 87.8966L307.939 92.582L312.625 87.8966L307.939 83.2112Z" fill="#00A878"/>
<path d="M315.836 92.1222L311.613 87.8987L312.915 86.5963C314.108 88.314 315.089 90.1694 315.836 92.1222Z" fill="#00A878"/>
<path d="M212.02 79.0841L207.334 83.7695L204.421 80.8592C206.428 79.65 208.543 78.6275 210.737 77.8044L211.511 78.578L212.02 79.0841Z" fill="#00A878"/>
<path d="M220.378 79.0841L215.693 83.7696L211.008 79.0841L213.084 77.0051C214.458 76.5849 215.856 76.2424 217.269 75.9792L219.868 78.578L220.378 79.0841Z" fill="#00A878"/>
<path d="M228.737 79.0844L224.052 83.7698L219.366 79.0844L223.105 75.3457C223.524 75.3326 223.945 75.3255 224.366 75.3245H224.974L228.228 78.5783L228.737 79.0844Z" fill="#00A878"/>
<path d="M237.093 79.0844L232.407 83.7698L227.722 79.0844L231.482 75.3245H233.333L236.663 78.6543L237.093 79.0844Z" fill="#00A878"/>
<path d="M245.604 79.0844L240.918 83.7698L236.233 79.0844L239.993 75.3245H241.844L245.097 78.5783L245.604 79.0844Z" fill="#00A878"/>
<path d="M253.962 79.0844L249.277 83.7698L244.591 79.0844L248.351 75.3245H250.202L253.38 78.5023L253.962 79.0844Z" fill="#00A878"/>
<path d="M262.169 79.0844L257.483 83.7698L252.798 79.0844L256.558 75.3245H258.409L261.663 78.5783L262.169 79.0844Z" fill="#00A878"/>
<path d="M270.528 79.0844L265.842 83.7698L261.157 79.0844L264.917 75.3245H266.768L270.098 78.6543L270.528 79.0844Z" fill="#00A878"/>
<path d="M279.038 79.0844L274.353 83.7698L269.667 79.0844L273.427 75.3245H275.278L278.532 78.5783L279.038 79.0844Z" fill="#00A878"/>
<path d="M287.397 79.0844L282.712 83.7698L278.026 79.0844L281.786 75.3245H283.637L286.891 78.5783L287.397 79.0844Z" fill="#00A878"/>
<path d="M295.759 79.0844L291.073 83.7698L286.388 79.0844L290.148 75.3245H291.391C291.596 75.3245 291.803 75.3245 291.999 75.3321L295.759 79.0844Z" fill="#00A878"/>
<path d="M304.117 79.0842L299.432 83.7697L294.747 79.0842L297.734 76.101C299.605 76.566 301.418 77.2373 303.14 78.1025L304.117 79.0842Z" fill="#00A878"/>
<path d="M309.301 82.411L308.218 83.4946L307.94 83.7727L303.254 79.0872L303.684 78.6571L303.858 78.4839C305.832 79.5555 307.662 80.8752 309.301 82.411Z" fill="#00A878"/>
<path d="M237.093 140.331L232.836 144.587L230.205 137.847L232.407 135.645L237.093 140.331Z" fill="#00A878"/>
<path d="M240.917 135.644L236.232 140.329L240.917 145.015L245.603 140.329L240.917 135.644Z" fill="#00A878"/>
<path d="M249.276 135.644L244.591 140.329L249.276 145.015L253.962 140.329L249.276 135.644Z" fill="#00A878"/>
<path d="M257.635 135.644L252.95 140.329L257.635 145.015L262.321 140.329L257.635 135.644Z" fill="#00A878"/>
<path d="M265.994 135.643L261.308 140.329L265.994 145.014L270.679 140.329L265.994 135.643Z" fill="#00A878"/>
<path d="M274.504 135.644L269.819 140.329L274.504 145.015L279.19 140.329L274.504 135.644Z" fill="#00A878"/>
<path d="M282.863 135.644L278.178 140.329L282.863 145.015L287.549 140.329L282.863 135.644Z" fill="#00A878"/>
<path d="M291.069 135.643L286.383 140.329L291.069 145.014L295.754 140.329L291.069 135.643Z" fill="#00A878"/>
<path d="M299.428 135.643L294.742 140.328L299.428 145.014L304.113 140.328L299.428 135.643Z" fill="#00A878"/>
<path d="M307.94 135.643L303.254 140.329L307.94 145.014L312.625 140.329L307.94 135.643Z" fill="#00A878"/>
<path d="M317.254 136.601L313.414 142.131L311.613 140.331L316.298 135.644L317.254 136.601Z" fill="#00A878"/>
<path d="M228.734 131.516L228.228 132.022L228.014 132.236L227.74 131.534L227.722 131.516L227.73 131.508L227.091 129.873L228.228 131.01L228.734 131.516Z" fill="#00A878"/>
<path d="M232.408 126.83L227.722 131.515L232.408 136.201L237.093 131.515L232.408 126.83Z" fill="#00A878"/>
<path d="M240.917 126.829L236.232 131.514L240.917 136.2L245.603 131.514L240.917 126.829Z" fill="#00A878"/>
<path d="M249.276 126.829L244.591 131.514L249.276 136.2L253.961 131.514L249.276 126.829Z" fill="#00A878"/>
<path d="M257.635 126.829L252.949 131.514L257.635 136.199L262.32 131.514L257.635 126.829Z" fill="#00A878"/>
<path d="M265.994 126.829L261.308 131.514L265.994 136.199L270.679 131.514L265.994 126.829Z" fill="#00A878"/>
<path d="M274.504 126.829L269.818 131.514L274.504 136.2L279.189 131.514L274.504 126.829Z" fill="#00A878"/>
<path d="M282.863 126.829L278.177 131.514L282.863 136.199L287.548 131.514L282.863 126.829Z" fill="#00A878"/>
<path d="M291.07 126.83L286.385 131.515L291.07 136.201L295.756 131.515L291.07 126.83Z" fill="#00A878"/>
<path d="M299.429 126.83L294.744 131.515L299.429 136.2L304.114 131.515L299.429 126.83Z" fill="#00A878"/>
<path d="M307.939 126.829L303.254 131.514L307.939 136.199L312.625 131.514L307.939 126.829Z" fill="#00A878"/>
<path d="M320.832 131.364L317.026 136.929L311.613 131.516L316.298 126.829L320.832 131.364Z" fill="#00A878"/>
<path d="M228.737 122.853L225.584 126.007L224.163 122.359C223.799 121.375 223.107 120.546 222.202 120.014L224.049 118.168L228.737 122.853Z" fill="#00A878"/>
<path d="M232.407 118.167L227.722 122.852L232.407 127.538L237.093 122.852L232.407 118.167Z" fill="#00A878"/>
<path d="M240.918 118.167L236.232 122.852L240.918 127.538L245.603 122.852L240.918 118.167Z" fill="#00A878"/>
<path d="M249.277 118.167L244.591 122.852L249.277 127.538L253.962 122.852L249.277 118.167Z" fill="#00A878"/>
<path d="M257.635 118.167L252.95 122.852L257.635 127.538L262.321 122.852L257.635 118.167Z" fill="#00A878"/>
<path d="M265.993 118.167L261.307 122.852L265.993 127.537L270.678 122.852L265.993 118.167Z" fill="#00A878"/>
<path d="M274.505 118.167L269.819 122.852L274.505 127.538L279.19 122.852L274.505 118.167Z" fill="#00A878"/>
<path d="M282.864 118.167L278.178 122.852L282.864 127.538L287.549 122.852L282.864 118.167Z" fill="#00A878"/>
<path d="M291.069 118.166L286.384 122.852L291.069 127.537L295.755 122.852L291.069 118.166Z" fill="#00A878"/>
<path d="M299.428 118.166L294.743 122.852L299.428 127.537L304.114 122.852L299.428 118.166Z" fill="#00A878"/>
<path d="M307.939 118.166L303.253 122.852L307.939 127.537L312.624 122.852L307.939 118.166Z" fill="#00A878"/>
<path d="M316.297 118.166L311.612 122.852L316.297 127.537L320.983 122.852L316.297 118.166Z" fill="#00A878"/>
<path d="M323.947 126.829L319.972 122.853L321.771 121.054C322.225 122.906 323.306 124.543 324.83 125.689L323.947 126.829Z" fill="#00A878"/>
<path d="M224.048 109.352L219.363 114.037L224.048 118.723L228.734 114.037L224.048 109.352Z" fill="#00A878"/>
<path d="M232.407 109.352L227.722 114.037L232.407 118.723L237.093 114.037L232.407 109.352Z" fill="#00A878"/>
<path d="M240.918 109.352L236.232 114.037L240.918 118.723L245.603 114.037L240.918 109.352Z" fill="#00A878"/>
<path d="M249.276 109.352L244.591 114.037L249.276 118.723L253.962 114.037L249.276 109.352Z" fill="#00A878"/>
<path d="M257.635 109.352L252.95 114.037L257.635 118.723L262.321 114.037L257.635 109.352Z" fill="#00A878"/>
<path d="M265.994 109.352L261.308 114.037L265.994 118.722L270.679 114.037L265.994 109.352Z" fill="#00A878"/>
<path d="M274.504 109.352L269.819 114.037L274.504 118.723L279.19 114.037L274.504 109.352Z" fill="#00A878"/>
<path d="M282.863 109.352L278.178 114.037L282.863 118.723L287.549 114.037L282.863 109.352Z" fill="#00A878"/>
<path d="M291.069 109.351L286.384 114.037L291.069 118.722L295.754 114.037L291.069 109.351Z" fill="#00A878"/>
<path d="M299.428 109.351L294.742 114.036L299.428 118.722L304.113 114.037L299.428 109.351Z" fill="#00A878"/>
<path d="M307.94 109.351L303.254 114.037L307.94 118.722L312.625 114.037L307.94 109.351Z" fill="#00A878"/>
<path d="M320.516 114.507L316.298 118.724L311.613 114.039L316.298 109.353L316.653 109.707L320.295 113.35L320.478 113.533L320.353 113.657L320.516 114.507Z" fill="#00A878"/>
<path d="M320.532 114.599L319.972 114.039L320.353 113.657L320.516 114.507L320.532 114.599Z" fill="#00A878"/>
<path d="M245.603 157.96L243.064 160.499H239.05L237.546 156.647L240.918 153.275L245.603 157.96Z" fill="#00A878"/>
<path d="M253.962 157.96L251.423 160.499H247.131L244.591 157.96L249.277 153.275L253.962 157.96Z" fill="#00A878"/>
<path d="M262.321 157.96L259.781 160.499H255.489L252.95 157.96L257.635 153.275L262.321 157.96Z" fill="#00A878"/>
<path d="M270.68 157.96L268.14 160.499H263.848L261.309 157.96L265.994 153.275L270.68 157.96Z" fill="#00A878"/>
<path d="M279.19 157.96L276.651 160.499H272.359L269.82 157.96L274.505 153.275L279.19 157.96Z" fill="#00A878"/>
<path d="M287.549 157.96L285.01 160.499H280.718L278.178 157.96L282.864 153.275L287.549 157.96Z" fill="#00A878"/>
<path d="M295.756 157.96L293.216 160.499H288.925L286.385 157.96L291.07 153.275L295.756 157.96Z" fill="#00A878"/>
<path d="M303.118 156.965L300.677 160.506L297.283 160.499L294.744 157.96L299.429 153.275L303.118 156.965Z" fill="#00A878"/>
<path d="M237.093 149.145L235.312 150.926L233.031 145.083L236.663 148.715L237.093 149.145Z" fill="#00A878"/>
<path d="M240.918 144.459L236.232 149.144L240.918 153.83L245.603 149.144L240.918 144.459Z" fill="#00A878"/>
<path d="M249.277 144.459L244.591 149.144L249.277 153.83L253.962 149.144L249.277 144.459Z" fill="#00A878"/>
<path d="M257.635 144.459L252.95 149.144L257.635 153.83L262.321 149.144L257.635 144.459Z" fill="#00A878"/>
<path d="M265.993 144.459L261.307 149.144L265.993 153.829L270.678 149.144L265.993 144.459Z" fill="#00A878"/>
<path d="M274.505 144.459L269.819 149.144L274.505 153.83L279.19 149.144L274.505 144.459Z" fill="#00A878"/>
<path d="M282.863 144.459L278.178 149.144L282.863 153.83L287.549 149.144L282.863 144.459Z" fill="#00A878"/>
<path d="M291.069 144.458L286.384 149.143L291.069 153.829L295.755 149.143L291.069 144.458Z" fill="#00A878"/>
<path d="M299.428 144.458L294.743 149.143L299.428 153.829L304.114 149.143L299.428 144.458Z" fill="#00A878"/>
<path d="M306.377 152.268L303.254 149.145L307.94 144.458L310.218 146.737L306.377 152.268Z" fill="#00A878"/>
<path d="M161.564 140.331L161.058 140.837L160.625 141.27C160.69 141.049 160.758 140.829 160.831 140.61C160.913 140.358 160.998 140.107 161.09 139.85L161.564 140.331Z" fill="#00A878"/>
<path d="M169.922 140.331L165.237 145.016L160.83 140.609C160.912 140.356 160.997 140.106 161.088 139.849L161.056 139.817L161.124 139.749L164.957 135.916L165.235 135.638L169.922 140.331Z" fill="#00A878"/>
<path d="M173.744 135.644L169.058 140.33L173.744 145.015L178.429 140.33L173.744 135.644Z" fill="#00A878"/>
<path d="M182.102 135.644L177.417 140.329L182.102 145.015L186.788 140.329L182.102 135.644Z" fill="#00A878"/>
<path d="M190.461 135.644L185.776 140.329L190.461 145.015L195.147 140.329L190.461 135.644Z" fill="#00A878"/>
<path d="M203.432 140.256L203.322 140.419C203.271 140.498 203.223 140.571 203.181 140.656L198.821 145.016L194.135 140.331L198.821 135.645L203.076 139.9L203.432 140.256Z" fill="#00A878"/>
<path d="M204.851 138.125L203.432 140.253L203.322 140.416C203.271 140.495 203.224 140.568 203.181 140.653C203.157 140.698 203.132 140.746 203.111 140.793L202.646 140.328L204.851 138.125Z" fill="#00A878"/>
<path d="M169.922 131.516L165.237 136.201L163.62 134.584C163.872 134.168 164.138 133.755 164.418 133.344L167.386 128.979L169.922 131.516Z" fill="#00A878"/>
<path d="M173.743 126.829L169.058 131.515L173.743 136.2L178.429 131.515L173.743 126.829Z" fill="#00A878"/>
<path d="M182.102 126.829L177.417 131.515L182.102 136.2L186.788 131.515L182.102 126.829Z" fill="#00A878"/>
<path d="M190.461 126.829L185.775 131.514L190.461 136.2L195.146 131.514L190.461 126.829Z" fill="#00A878"/>
<path d="M198.82 126.829L194.134 131.514L198.82 136.199L203.505 131.514L198.82 126.829Z" fill="#00A878"/>
<path d="M210.36 129.859L206.613 135.483L202.646 131.516L207.331 126.831L210.36 129.859Z" fill="#00A878"/>
<path d="M178.43 122.853L173.744 127.539L170.542 124.337L174.336 118.759L178.43 122.853Z" fill="#00A878"/>
<path d="M182.103 118.166L177.417 122.851L182.103 127.536L186.788 122.851L182.103 118.166Z" fill="#00A878"/>
<path d="M190.462 118.167L185.776 122.852L190.462 127.538L195.147 122.852L190.462 118.167Z" fill="#00A878"/>
<path d="M198.821 118.167L194.135 122.852L198.821 127.538L203.506 122.852L198.821 118.167Z" fill="#00A878"/>
<path d="M207.331 118.166L202.646 122.851L207.331 127.536L212.016 122.851L207.331 118.166Z" fill="#00A878"/>
<path d="M217.506 119.984C216.895 120.341 216.375 120.835 215.986 121.426L213.421 125.268L211.004 122.852L215.69 118.166L217.506 119.984Z" fill="#00A878"/>
<path d="M181.287 108.537L186.789 114.039L182.103 118.724L177.494 114.115L181.287 108.537Z" fill="#00A878"/>
<path d="M190.461 109.352L185.776 114.037L190.461 118.723L195.147 114.037L190.461 109.352Z" fill="#00A878"/>
<path d="M198.82 109.352L194.135 114.037L198.82 118.723L203.506 114.037L198.82 109.352Z" fill="#00A878"/>
<path d="M207.331 109.352L202.645 114.038L207.331 118.723L212.016 114.038L207.331 109.352Z" fill="#00A878"/>
<path d="M215.689 109.352L211.004 114.037L215.689 118.723L220.375 114.037L215.689 109.352Z" fill="#00A878"/>
<path d="M161.564 157.96L161.298 158.226C161.191 157.992 161.089 157.755 160.994 157.516C160.962 157.446 160.934 157.375 160.906 157.303L161.564 157.96Z" fill="#00A878"/>
<path d="M160.992 157.516L165.234 153.275L169.919 157.96L164.574 163.305L160.992 157.516Z" fill="#00A878"/>
<path d="M173.744 153.273L169.059 157.958L173.744 162.644L178.43 157.958L173.744 153.273Z" fill="#00A878"/>
<path d="M182.103 153.272L177.418 157.958L182.103 162.643L186.789 157.958L182.103 153.272Z" fill="#00A878"/>
<path d="M178.433 166.927L175.507 169.852C173.435 169.368 171.449 168.569 169.618 167.483L169.062 166.927L173.747 162.241L178.433 166.927Z" fill="#00A878"/>
<path d="M186.789 166.927L186.2 167.515L183.314 170.401H180.892L177.418 166.927L182.103 162.241L182.305 162.443L186.732 166.87L186.789 166.927Z" fill="#00A878"/>
<path d="M194.556 157.369L190.324 162.507L185.777 157.96L190.462 153.275L194.556 157.369Z" fill="#00A878"/>
<path d="M161.564 149.145L161.058 149.651L159.538 151.171C159.44 149.823 159.44 148.469 159.538 147.121L161.058 148.641L161.564 149.145Z" fill="#00A878"/>
<path d="M165.234 144.459L160.548 149.144L165.234 153.83L169.919 149.144L165.234 144.459Z" fill="#00A878"/>
<path d="M173.744 144.458L169.058 149.143L173.744 153.828L178.429 149.143L173.744 144.458Z" fill="#00A878"/>
<path d="M182.103 144.459L177.417 149.144L182.103 153.83L186.788 149.144L182.103 144.459Z" fill="#00A878"/>
<path d="M190.462 144.459L185.776 149.144L190.462 153.83L195.147 149.144L190.462 144.459Z" fill="#00A878"/>
<path d="M202.312 147.951L198.081 153.09L194.135 149.145L198.821 144.46L199.099 144.738L202.312 147.951Z" fill="#00A878"/>
<path d="M300.649 160.5V111.63" stroke="#008760" stroke-width="0.759882" stroke-linecap="round" stroke-linejoin="round"/>
<path d="M269.093 74.8685V107.84L254.368 74.8685H269.093Z" fill="#008760"/>
<path d="M279.292 75.7803H269.093V68.9261C270.976 68.9581 272.78 69.6882 274.155 70.9748L279.292 75.7803Z" fill="#193743"/>
<path d="M254.824 75.7802L253.189 71.151C252.958 70.5004 252.532 69.9371 251.968 69.5385C251.405 69.1398 250.731 68.9254 250.041 68.9246H237.518C235.59 68.9246 233.735 69.6575 232.327 70.9747L227.19 75.7802H254.824Z" fill="#193743"/>
<path d="M246.651 75.7803L251.078 70.4824C251.209 70.3275 251.379 70.2099 251.57 70.1411C251.761 70.0724 251.967 70.055 252.167 70.0907C252.367 70.1264 252.554 70.2139 252.71 70.3445C252.865 70.4751 252.984 70.6442 253.053 70.835L254.824 75.7803H246.651Z" fill="#008760"/>
<path d="M277.131 105.198H291.991V114.235C291.991 114.824 291.757 115.388 291.34 115.804C290.924 116.22 290.36 116.454 289.771 116.454H279.345C278.756 116.454 278.192 116.22 277.775 115.803C277.359 115.387 277.125 114.822 277.125 114.233V105.198H277.131Z" fill="white" stroke="#193743" stroke-width="0.759882" stroke-linecap="round" stroke-linejoin="round"/>
<path d="M291.991 102.169H277.131V105.197H291.991V102.169Z" fill="white" stroke="#193743" stroke-width="0.759882" stroke-linecap="round" stroke-linejoin="round"/>
<path d="M312.152 374.001H272.613C269.304 374.001 266.578 371.355 266.211 368.145H272.087C274.192 368.145 276.278 367.749 278.237 366.978L284.389 364.555C288.086 363.101 292.022 362.355 295.994 362.355H300.658L312.152 374.001Z" fill="#008760"/>
<path d="M209.436 373.998H161.458C159.891 373.998 158.38 373.413 157.221 372.359C156.061 371.304 155.337 369.854 155.189 368.294H169.528C171.634 368.294 173.72 367.898 175.679 367.127L181.831 364.704C185.527 363.25 189.464 362.503 193.436 362.504H198.404L209.436 373.998Z" fill="#008760"/>
<path d="M300.658 362.352H295.994C292.022 362.352 288.085 363.098 284.389 364.553L278.237 366.975C276.278 367.746 274.192 368.142 272.087 368.142H266.211C266.182 367.897 266.168 367.649 266.169 367.402V206.178C266.169 204.669 264.094 204.255 263.515 205.649L198.404 362.504H193.436C189.464 362.504 185.527 363.25 181.831 364.704L175.679 367.127C173.72 367.898 171.634 368.294 169.528 368.294H155.189C155.096 367.287 155.249 366.272 155.633 365.337L239.05 160.5H300.651V362.352H300.658Z" fill="#E9C46B"/>
<path d="M300.651 160.5V168.25H235.894L239.05 160.5H300.651Z" stroke="#193743" stroke-width="0.759882" stroke-linecap="round" stroke-linejoin="round"/>
<path d="M275.401 160.5H269.374C268.886 160.5 268.49 160.896 268.49 161.384V167.411C268.49 167.9 268.886 168.296 269.374 168.296H275.401C275.89 168.296 276.286 167.9 276.286 167.411V161.384C276.286 160.896 275.89 160.5 275.401 160.5Z" stroke="#193743" stroke-width="0.759882" stroke-linecap="round" stroke-linejoin="round"/>
<path d="M268.49 164.375H272.388" stroke="#193743" stroke-width="0.759882" stroke-linecap="round" stroke-linejoin="round"/>
<path d="M290.362 160.5H288.681V168.25H290.362V160.5Z" stroke="#193743" stroke-width="0.759882" stroke-linecap="round" stroke-linejoin="round"/>
<path d="M255.711 160.5H254.031V168.25H255.711V160.5Z" stroke="#193743" stroke-width="0.759882" stroke-linecap="round" stroke-linejoin="round"/>
<path d="M279.444 75.3242L221.969 183.531H229.038L285.917 75.3242H279.444Z" fill="white" stroke="#193743" stroke-width="0.759882" stroke-linecap="round" stroke-linejoin="round"/>
<path d="M229.345 183.487L211.503 227.092C210.987 228.36 210.106 229.445 208.97 230.209C207.835 230.973 206.497 231.381 205.129 231.381H186.819C186.044 231.383 185.28 231.194 184.595 230.832C183.91 230.469 183.324 229.945 182.889 229.303C182.454 228.662 182.183 227.924 182.1 227.153C182.017 226.383 182.124 225.604 182.412 224.884L197.358 187.802C197.868 186.526 198.749 185.431 199.887 184.661C201.024 183.89 202.367 183.477 203.741 183.477L229.345 183.487Z" fill="white" stroke="#193743" stroke-width="0.759882" stroke-linecap="round" stroke-linejoin="round"/>
<path d="M229.345 183.531L211.761 226.811C211.254 228.061 210.387 229.131 209.269 229.885C208.151 230.639 206.833 231.043 205.484 231.044H198.228C197.464 231.044 196.713 230.857 196.039 230.499C195.365 230.141 194.789 229.624 194.361 228.992C193.933 228.36 193.667 227.633 193.585 226.874C193.503 226.115 193.608 225.348 193.892 224.639L208.623 187.799C209.126 186.541 209.994 185.462 211.116 184.702C212.239 183.942 213.563 183.536 214.918 183.536L229.345 183.531Z" fill="white" stroke="#193743" stroke-width="0.759882" stroke-linecap="round" stroke-linejoin="round"/>
<path d="M221.745 183.531L221.314 184.588" stroke="#008760" stroke-width="0.759882" stroke-miterlimit="10" stroke-linecap="round"/>
<path d="M220.456 186.7L204.161 226.811C203.799 227.703 203.251 228.507 202.554 229.17C201.857 229.834 201.027 230.341 200.118 230.659" stroke="#193743" stroke-width="0.759882" stroke-miterlimit="10" stroke-linecap="round" stroke-dasharray="2.28 2.28"/>
<path d="M199.014 230.943C198.639 231.007 198.26 231.039 197.88 231.039" stroke="#008760" stroke-width="0.759882" stroke-miterlimit="10" stroke-linecap="round"/>
<path d="M204.24 198.513H193.179" stroke="#193743" stroke-width="0.759882" stroke-miterlimit="10" stroke-linecap="round"/>
<path d="M332.873 130.283C329.046 131.76 324.307 138.265 321.42 146.624C317.81 157.071 318.228 166.694 322.332 168.116C323.021 168.342 323.763 168.353 324.459 168.15L325.771 167.572C325.097 168.39 324.25 169.049 323.292 169.502C322.334 169.955 321.287 170.191 320.227 170.192H311.146C305.798 170.192 300.681 166.074 300.674 160.726C300.663 153.279 308.576 129.286 324.382 124.929C329.736 123.453 337.241 124.891 337.83 129.004L332.873 130.283Z" fill="#008760"/>
<path d="M402.984 135.536H383.675C383.346 135.535 383.023 135.449 382.737 135.286C382.451 135.123 382.212 134.888 382.045 134.605C381.877 134.321 381.787 133.999 381.781 133.67C381.776 133.34 381.857 133.016 382.016 132.727L394.534 109.999C394.878 109.376 395.382 108.856 395.995 108.495C396.607 108.133 397.306 107.942 398.018 107.943H417.319C417.648 107.943 417.971 108.029 418.257 108.192C418.543 108.355 418.782 108.59 418.949 108.874C419.117 109.157 419.207 109.479 419.212 109.809C419.218 110.138 419.137 110.463 418.978 110.751L406.467 133.475C406.124 134.099 405.62 134.619 405.008 134.982C404.395 135.344 403.696 135.535 402.984 135.536V135.536Z" stroke="white" stroke-width="0.759882" stroke-miterlimit="10"/>
<path d="M400.501 124.063L405.118 134.911" stroke="white" stroke-width="0.759882" stroke-miterlimit="10"/>
<path d="M417.928 107.94L401.676 119.001" stroke="white" stroke-width="0.759882" stroke-miterlimit="10"/>
<path d="M395.952 108.52L402.227 119.829C402.581 120.465 402.675 121.214 402.49 121.918C402.306 122.622 401.857 123.228 401.236 123.61L382.507 135.133" stroke="white" stroke-width="0.759882" stroke-miterlimit="10"/>
<path d="M324.461 168.153C323.765 168.357 323.023 168.345 322.333 168.119C318.216 166.697 317.806 157.074 321.421 146.627C324.309 138.268 329.048 131.764 332.874 130.286L379.473 118.207C380.358 117.799 382.992 117.739 383.967 117.739H396.042V118.455C396.042 119.417 395.704 120.348 395.086 121.085C394.467 121.823 393.609 122.318 392.662 122.485L389.6 123.277C388.961 123.39 388.357 123.645 387.83 124.023C387.304 124.401 386.87 124.893 386.56 125.463L382.712 133.445C382.092 134.581 382.914 135.51 384.209 135.51H397.901C397.901 135.51 393.818 143.516 379.794 146.492L370.894 147.715L324.461 168.153Z" fill="#FFE9BE" stroke="#193743" stroke-width="0.759882" stroke-linecap="round" stroke-linejoin="round"/>
<path d="M385.087 128.513C383.242 131.821 380.111 136.058 375.993 136.542" stroke="#193743" stroke-width="0.759882" stroke-miterlimit="10" stroke-linecap="round"/>
<path d="M366.682 144.721C367.186 145.702 367.985 146.5 368.966 147.004C369.948 147.508 371.062 147.692 372.153 147.531" stroke="#193743" stroke-width="0.759882" stroke-miterlimit="10" stroke-linecap="round"/>
<path d="M185.05 171.165H177.451C170.074 171.165 165.349 162.563 168.788 156.037C170.638 152.525 173.218 148.945 176.114 145.764C185.659 135.277 198.374 131.302 204.518 136.891C205.734 138.004 206.772 140.121 206.772 143.537L185.05 171.165Z" fill="#008760"/>
<path d="M184.675 170.835C182.114 168.665 184.839 159.872 190.754 152.881C195.024 147.84 199.947 144.323 203.322 143.566C203.58 143.543 203.828 143.533 204.065 143.533H218.047C223.774 143.532 229.398 145.05 234.347 147.931L244.331 153.741C245.546 154.492 246.548 155.541 247.243 156.788C247.939 158.035 248.304 159.439 248.304 160.867V174.357C248.304 176.104 247.66 177.79 246.494 179.093C245.329 180.395 243.725 181.222 241.988 181.416L232.035 182.525V180.372C232.035 179.757 232.187 179.152 232.479 178.611C232.771 178.07 233.193 177.61 233.707 177.273L236.103 175.968C236.207 175.911 236.289 175.821 236.336 175.713C236.383 175.605 236.393 175.484 236.363 175.369C236.334 175.255 236.268 175.153 236.174 175.081C236.081 175.008 235.966 174.969 235.848 174.969H232.84C228.698 174.969 225.48 173.803 222.518 170.907L188.298 170.855L184.675 170.835Z" fill="#FFE9BE" stroke="#193743" stroke-width="0.759882" stroke-linecap="round" stroke-linejoin="round"/>
<path d="M238.638 161.613L244.018 164.943C245.232 165.694 246.234 166.743 246.929 167.99C247.624 169.238 247.989 170.642 247.99 172.069V176.243" stroke="#193743" stroke-width="0.759882" stroke-miterlimit="10" stroke-linecap="round"/>
<path d="M238.638 155.99L244.018 159.32C245.234 160.072 246.236 161.122 246.931 162.371C247.626 163.619 247.991 165.025 247.99 166.454V171.843" stroke="#193743" stroke-width="0.759882" stroke-miterlimit="10" stroke-linecap="round"/>
<path d="M247.815 176.788C247.359 174.252 246.143 172.278 244.168 171.056L238.788 167.724" stroke="#193743" stroke-width="0.759882" stroke-miterlimit="10" stroke-linecap="round"/>
<path d="M221.491 167.036C221.491 168.196 221.798 169.335 222.381 170.338C222.965 171.341 223.803 172.171 224.812 172.744" stroke="#193743" stroke-width="0.759882" stroke-miterlimit="10" stroke-linecap="round"/>
<path d="M456.01 374.757C456.01 372.708 456.413 370.678 457.198 368.785C457.982 366.891 459.131 365.171 460.581 363.722C462.03 362.272 463.75 361.123 465.644 360.339C467.537 359.554 469.567 359.151 471.616 359.151H471.796C466.683 352.16 463.616 343.321 463.575 333.71C463.477 310.794 480.413 292.278 501.524 292.23C520.337 292.187 535.975 306.971 539.074 326.424C543.845 322.526 549.697 320.535 556.023 320.535C572.073 320.535 585.084 335.013 585.084 353.248C585.084 360.836 582.527 369.043 578.737 374.618L456.01 374.757Z" fill="white"/>
<path d="M423.239 193.725C426.232 193.724 429.175 192.955 431.786 191.492C434.397 190.028 436.589 187.919 438.151 185.366L447.242 170.533H422.637L416.168 181.089C412.78 186.623 416.758 193.725 423.239 193.725Z" fill="white"/>
<path d="M489.156 146.725V168.109H447.514V146.725C447.515 143.073 446.176 139.549 443.752 136.818C441.328 134.087 437.987 132.341 434.361 131.908C434.946 131.838 435.536 131.803 436.125 131.804H474.238C478.195 131.804 481.989 133.377 484.787 136.175C487.584 138.973 489.156 142.768 489.156 146.725V146.725Z" stroke="#008760" stroke-width="0.759882" stroke-linejoin="round"/>
<path d="M447.515 146.75V168.413H421.198V146.75C421.198 139.986 425.584 134.258 431.634 132.331C433.405 131.767 435.306 131.767 437.077 132.331C443.127 134.258 447.515 139.986 447.515 146.75Z" stroke="#008760" stroke-width="0.759882" stroke-linejoin="round"/>
<path d="M421.198 146.75C421.198 139.986 425.584 134.258 431.634 132.331C433.405 131.767 435.306 131.767 437.077 132.331C443.127 134.258 447.515 139.986 447.515 146.75V165.374L421.198 146.75Z" fill="#008760"/>
<path d="M447.514 168.109V373.998" stroke="#008760" stroke-width="0.759882" stroke-miterlimit="10"/>
<path d="M421.841 193.21C425.043 193.211 428.192 192.39 430.986 190.826C433.779 189.262 436.125 187.008 437.799 184.278L447.525 168.413H421.198L414.277 179.703C410.653 185.614 414.908 193.21 421.841 193.21Z" stroke="#008760" stroke-width="0.759882" stroke-linejoin="round"/>
<path d="M464.648 120.155H455.572V124.215H464.648V120.155Z" fill="white"/>
<path d="M455.572 156.31V120.139" stroke="#008760" stroke-width="0.759882" stroke-miterlimit="10"/>
<path d="M455.975 156.462V132.308H461.756L455.975 156.462Z" fill="white"/>
<path d="M410.706 374.368V284.608C410.715 279.795 412.61 275.177 415.984 271.744C419.358 268.311 423.942 266.336 428.755 266.243C433.567 266.15 438.225 267.946 441.729 271.246C445.233 274.546 447.304 279.087 447.5 283.897C447.51 284.132 447.515 284.369 447.515 284.608V374.368" stroke="#008760" stroke-width="0.759882" stroke-miterlimit="10" stroke-linecap="round"/>
<path d="M447.484 374.368V284.608C447.484 284.37 447.484 284.132 447.499 283.897C447.694 279.087 449.766 274.546 453.27 271.246C456.774 267.946 461.432 266.15 466.244 266.243C471.056 266.336 475.641 268.311 479.015 271.744C482.389 275.177 484.283 279.795 484.293 284.608V374.368" stroke="#008760" stroke-width="0.759882" stroke-miterlimit="10" stroke-linecap="round"/>
<path d="M484.293 374.368V284.608C484.302 279.795 486.197 275.177 489.571 271.744C492.944 268.311 497.529 266.336 502.341 266.243C507.154 266.15 511.811 267.946 515.315 271.246C518.819 274.546 520.891 279.087 521.086 283.897C521.097 284.132 521.101 284.37 521.101 284.608V374.368" stroke="#008760" stroke-width="0.759882" stroke-miterlimit="10" stroke-linecap="round"/>
<path d="M521.071 374.368V284.608C521.071 284.37 521.071 284.132 521.086 283.897C521.282 279.087 523.353 274.546 526.857 271.246C530.361 267.946 535.019 266.15 539.831 266.243C544.644 266.336 549.228 268.311 552.602 271.744C555.976 275.177 557.871 279.795 557.88 284.608V374.368" stroke="#008760" stroke-width="0.759882" stroke-miterlimit="10" stroke-linecap="round"/>
<path d="M410.706 353.15C410.709 348.361 412.578 343.762 415.917 340.329C419.255 336.897 423.801 334.9 428.587 334.764C433.374 334.628 438.025 336.363 441.553 339.601C445.081 342.838 447.209 347.323 447.484 352.104" stroke="#008760" stroke-width="0.759882" stroke-miterlimit="10" stroke-linecap="round"/>
<path d="M447.514 352.104C447.789 347.323 449.917 342.838 453.445 339.601C456.974 336.363 461.625 334.628 466.411 334.764C471.198 334.9 475.743 336.897 479.082 340.329C482.42 343.762 484.29 348.361 484.293 353.15" stroke="#008760" stroke-width="0.759882" stroke-miterlimit="10" stroke-linecap="round"/>
<path d="M484.293 353.15C484.296 348.361 486.165 343.762 489.504 340.329C492.842 336.897 497.387 334.9 502.174 334.764C506.961 334.628 511.612 336.363 515.14 339.601C518.668 342.838 520.796 347.323 521.071 352.104" stroke="#008760" stroke-width="0.759882" stroke-miterlimit="10" stroke-linecap="round"/>
<path d="M521.102 352.104C521.377 347.323 523.504 342.838 527.032 339.601C530.561 336.363 535.212 334.628 539.999 334.764C544.785 334.9 549.33 336.897 552.669 340.329C556.008 343.762 557.877 348.361 557.88 353.15" stroke="#008760" stroke-width="0.759882" stroke-miterlimit="10" stroke-linecap="round"/>
<path d="M557.849 374.368V284.608C557.849 284.37 557.849 284.132 557.865 283.897C558.06 279.087 560.132 274.546 563.636 271.246C567.14 267.946 571.797 266.15 576.609 266.243C581.422 266.336 586.006 268.311 589.38 271.744C592.754 275.177 594.649 279.795 594.658 284.608V374.368" stroke="#008760" stroke-width="0.759882" stroke-miterlimit="10" stroke-linecap="round"/>
<path d="M557.88 352.104C558.155 347.323 560.282 342.838 563.811 339.601C567.339 336.363 571.99 334.628 576.777 334.764C581.563 334.9 586.108 336.897 589.447 340.329C592.786 343.762 594.655 348.361 594.658 353.15" stroke="#008760" stroke-width="0.759882" stroke-miterlimit="10" stroke-linecap="round"/>
<path d="M410.706 301.233H594.658" stroke="#008760" stroke-width="0.759882" stroke-miterlimit="10" stroke-linecap="round"/>
<path d="M473.895 374.369H610" stroke="#008760" stroke-width="0.759882" stroke-miterlimit="10" stroke-linecap="round"/>
<path d="M521.065 373.998C517.504 373.998 514.617 371.352 514.617 368.087C514.617 364.823 517.504 362.175 521.065 362.175C521.734 362.174 522.399 362.269 523.041 362.457C523.056 360.551 523.547 358.68 524.467 357.012C525.388 355.344 526.71 353.932 528.314 352.904C529.918 351.876 531.753 351.264 533.653 351.123C535.553 350.983 537.458 351.318 539.196 352.099C539.406 351.293 539.776 350.538 540.284 349.878C540.792 349.219 541.428 348.668 542.154 348.26C542.88 347.852 543.681 347.594 544.508 347.503C545.336 347.411 546.174 347.487 546.971 347.727C547.769 347.966 548.51 348.364 549.15 348.897C549.79 349.429 550.317 350.086 550.697 350.826C551.078 351.567 551.306 352.377 551.366 353.207C551.427 354.038 551.319 354.872 551.05 355.66C551.332 355.624 551.617 355.606 551.901 355.607C553.679 355.607 555.384 356.31 556.645 357.563C557.906 358.816 558.619 360.517 558.631 362.294C559.46 361.869 560.374 361.636 561.306 361.613C562.237 361.59 563.162 361.778 564.011 362.162C564.86 362.546 565.611 363.117 566.209 363.832C566.806 364.547 567.235 365.388 567.463 366.291C567.69 367.195 567.711 368.138 567.524 369.051C567.336 369.964 566.945 370.822 566.379 371.563C565.814 372.303 565.089 372.907 564.257 373.328C563.426 373.75 562.511 373.978 561.579 373.996H521.065V373.998Z" fill="#7EBAD2"/>
<path d="M532.58 356.782C533.336 356.782 533.948 356.169 533.948 355.414C533.948 354.659 533.336 354.046 532.58 354.046C531.825 354.046 531.213 354.659 531.213 355.414C531.213 356.169 531.825 356.782 532.58 356.782Z" fill="white"/>
<path d="M536.808 349.458C537.858 349.458 538.708 348.607 538.708 347.558C538.708 346.509 537.858 345.659 536.808 345.659C535.759 345.659 534.909 346.509 534.909 347.558C534.909 348.607 535.759 349.458 536.808 349.458Z" fill="#7EBAD2"/>
<path d="M511.834 366.131C513.093 366.131 514.114 365.111 514.114 363.852C514.114 362.593 513.093 361.572 511.834 361.572C510.575 361.572 509.554 362.593 509.554 363.852C509.554 365.111 510.575 366.131 511.834 366.131Z" fill="#7EBAD2"/>
<path d="M521.53 368.186C522.286 368.186 522.899 367.573 522.899 366.817C522.899 366.06 522.286 365.447 521.53 365.447C520.774 365.447 520.161 366.06 520.161 366.817C520.161 367.573 520.774 368.186 521.53 368.186Z" fill="white"/>
<path d="M535.84 361.572C536.889 361.572 537.74 360.721 537.74 359.672C537.74 358.623 536.889 357.772 535.84 357.772C534.791 357.772 533.94 358.623 533.94 359.672C533.94 360.721 534.791 361.572 535.84 361.572Z" fill="white"/>
<path d="M552.356 363.023C553.405 363.023 554.255 362.173 554.255 361.124C554.255 360.074 553.405 359.224 552.356 359.224C551.306 359.224 550.456 360.074 550.456 361.124C550.456 362.173 551.306 363.023 552.356 363.023Z" fill="white"/>
<path d="M545.555 369.912C546.311 369.912 546.924 369.299 546.924 368.543C546.924 367.787 546.311 367.174 545.555 367.174C544.798 367.174 544.185 367.787 544.185 368.543C544.185 369.299 544.798 369.912 545.555 369.912Z" fill="white"/>
<path d="M573.097 373.846C575.038 373.846 576.611 372.272 576.611 370.332C576.611 368.391 575.038 366.818 573.097 366.818C571.157 366.818 569.583 368.391 569.583 370.332C569.583 372.272 571.157 373.846 573.097 373.846Z" fill="#7EBAD2"/>
<path d="M98.6963 175.626H48.9012C44.7171 175.626 41.3252 179.018 41.3252 183.202V226.713C41.3252 230.897 44.7171 234.289 48.9012 234.289H98.6963C102.88 234.289 106.272 230.897 106.272 226.713V183.202C106.272 179.018 102.88 175.626 98.6963 175.626Z" fill="#7EBAD2"/>
<path d="M89.2738 176.051H47.0775C42.8934 176.051 39.5015 179.443 39.5015 183.627V226.287C39.5015 230.471 42.8934 233.863 47.0775 233.863H89.2738C93.4579 233.863 96.8498 230.471 96.8498 226.287V183.627C96.8498 179.443 93.4579 176.051 89.2738 176.051Z" fill="white" stroke="#008760" stroke-width="0.759882" stroke-linecap="round" stroke-linejoin="round"/>
<path d="M77.9088 197.167H58.2309C57.2875 197.167 56.5227 197.932 56.5227 198.875V210.989C56.5227 211.933 57.2875 212.697 58.2309 212.697H77.9088C78.8523 212.697 79.617 211.933 79.617 210.989V198.875C79.617 197.932 78.8523 197.167 77.9088 197.167Z" stroke="#008760" stroke-width="0.759882" stroke-miterlimit="10" stroke-linecap="round"/>
<path d="M79.6186 198.916L69.2325 205.284C68.8827 205.498 68.4807 205.611 68.0706 205.611C67.6606 205.611 67.2585 205.498 66.9088 205.284L56.5227 198.916" stroke="#008760" stroke-width="0.759882" stroke-miterlimit="10" stroke-linecap="round"/>
<path d="M71.4165 206.5L79.3147 211.842" stroke="#008760" stroke-width="0.759882" stroke-miterlimit="10" stroke-linecap="round"/>
<path d="M56.8267 211.842L64.7249 206.5" stroke="#008760" stroke-width="0.759882" stroke-miterlimit="10" stroke-linecap="round"/>
<path d="M39.5015 183.627H106.274" stroke="#008760" stroke-width="0.759882" stroke-miterlimit="10" stroke-linecap="round"/>
<path d="M358.429 374.369H20.6841" stroke="#008760" stroke-width="0.759882" stroke-miterlimit="10" stroke-linecap="round"/>
<path d="M318.593 373.846C354.644 373.846 383.87 344.62 383.87 308.569C383.87 272.517 354.644 243.292 318.593 243.292C282.541 243.292 253.316 272.517 253.316 308.569C253.316 344.62 282.541 373.846 318.593 373.846Z" stroke="#00A878" stroke-width="0.759882" stroke-miterlimit="10"/>
<path d="M318.593 369.359C352.167 369.359 379.383 342.142 379.383 308.569C379.383 274.995 352.167 247.778 318.593 247.778C285.019 247.778 257.802 274.995 257.802 308.569C257.802 342.142 285.019 369.359 318.593 369.359Z" stroke="#00A878" stroke-width="0.759882" stroke-miterlimit="10"/>
<path d="M66.2769 373.846C102.328 373.846 131.554 344.621 131.554 308.569C131.554 272.518 102.328 243.292 66.2769 243.292C30.2255 243.292 1 272.518 1 308.569C1 344.621 30.2255 373.846 66.2769 373.846Z" stroke="#00A878" stroke-width="0.759882" stroke-miterlimit="10"/>
<path d="M66.2769 369.359C99.8506 369.359 127.068 342.142 127.068 308.569C127.068 274.995 99.8506 247.778 66.2769 247.778C32.7032 247.778 5.48633 274.995 5.48633 308.569C5.48633 342.142 32.7032 369.359 66.2769 369.359Z" stroke="#00A878" stroke-width="0.759882" stroke-miterlimit="10"/>
<path d="M311.731 178.849H307.505V218.549H311.731V178.849Z" fill="#008760"/>
<path d="M342.851 183.679L332.224 216.962C332.091 217.378 331.829 217.742 331.476 218C331.123 218.257 330.697 218.397 330.26 218.397H326.196C325.989 218.397 325.784 218.347 325.599 218.253C325.414 218.159 325.253 218.022 325.131 217.855C325.008 217.687 324.927 217.493 324.894 217.288C324.861 217.083 324.876 216.873 324.939 216.675L335.73 182.877C335.816 182.611 335.984 182.38 336.211 182.216C336.437 182.052 336.709 181.964 336.988 181.965H341.593C341.8 181.965 342.004 182.014 342.189 182.107C342.374 182.201 342.534 182.337 342.656 182.504C342.779 182.67 342.86 182.864 342.894 183.068C342.928 183.272 342.913 183.482 342.851 183.679Z" fill="#A74602"/>
<path d="M324.356 218.395H316.971L329.599 178.849H336.983L324.356 218.395Z" fill="#00A878"/>
<path d="M319.365 178.849H311.731V218.549H319.365V178.849Z" fill="#FFE6A8"/>
<path d="M304.774 195.495H277.055C275.546 195.495 274.324 196.718 274.324 198.226V216.005C274.324 217.513 275.546 218.736 277.055 218.736H304.774C306.282 218.736 307.505 217.513 307.505 216.005V198.226C307.505 196.718 306.282 195.495 304.774 195.495Z" fill="#7EBAD2"/>
<path d="M261.494 189.59H343.538L336.138 212.758C335.595 214.459 334.526 215.943 333.084 216.996C331.643 218.048 329.904 218.616 328.119 218.616H275.324L261.494 189.59Z" stroke="#193743" stroke-width="0.759882" stroke-miterlimit="10"/>
<path d="M337.307 189.59L329.907 212.758C329.364 214.459 328.295 215.943 326.853 216.996C325.412 218.048 323.673 218.616 321.888 218.616" stroke="#193743" stroke-width="0.759882" stroke-miterlimit="10"/>
<path d="M330.666 189.59L323.266 212.758C322.723 214.459 321.653 215.943 320.212 216.996C318.77 218.048 317.031 218.616 315.246 218.616" stroke="#193743" stroke-width="0.759882" stroke-miterlimit="10"/>
<path d="M324.026 189.59L316.626 212.758C316.083 214.459 315.014 215.943 313.572 216.996C312.13 218.048 310.392 218.616 308.606 218.616" stroke="#193743" stroke-width="0.759882" stroke-miterlimit="10"/>
<path d="M317.383 189.59L309.983 212.758C309.44 214.459 308.371 215.943 306.929 216.996C305.488 218.048 303.749 218.616 301.964 218.616" stroke="#193743" stroke-width="0.759882" stroke-miterlimit="10"/>
<path d="M310.742 189.59L303.342 212.758C302.799 214.459 301.729 215.943 300.288 216.996C298.846 218.048 297.107 218.616 295.322 218.616" stroke="#193743" stroke-width="0.759882" stroke-miterlimit="10"/>
<path d="M304.1 189.59L296.701 212.758C296.158 214.459 295.088 215.943 293.647 216.996C292.205 218.048 290.466 218.616 288.681 218.616" stroke="#193743" stroke-width="0.759882" stroke-miterlimit="10"/>
<path d="M297.459 189.59L290.059 212.758C289.516 214.459 288.447 215.943 287.005 216.996C285.564 218.048 283.825 218.616 282.04 218.616" stroke="#193743" stroke-width="0.759882" stroke-miterlimit="10"/>
<path d="M290.817 189.59L283.418 212.758C282.875 214.459 281.805 215.943 280.364 216.996C278.922 218.048 277.183 218.616 275.398 218.616" stroke="#193743" stroke-width="0.759882" stroke-miterlimit="10"/>
<path d="M284.176 189.59L276.776 212.758C276.314 214.209 275.465 215.507 274.322 216.514" stroke="#193743" stroke-width="0.759882" stroke-miterlimit="10"/>
<path d="M277.535 189.59L271.114 209.698" stroke="#193743" stroke-width="0.759882" stroke-miterlimit="10"/>
<path d="M270.893 189.59L267.121 201.401" stroke="#193743" stroke-width="0.759882" stroke-miterlimit="10"/>
<path d="M243.782 308.668C243.782 267.354 277.273 233.863 318.587 233.863" stroke="#008760" stroke-width="0.759882" stroke-miterlimit="10" stroke-linecap="round"/>
<path d="M277.579 223.359C261.494 228.922 246.712 241.857 237.998 257.705L227.648 276.518C222.32 286.206 214.488 294.284 204.971 299.911C195.454 305.538 184.601 308.507 173.545 308.508H149.905L122.877 221.056" stroke="#008760" stroke-width="0.759882" stroke-miterlimit="10" stroke-linecap="round"/>
<path d="M318.593 308.569L258.313 183.179C257.059 180.568 255.093 178.365 252.642 176.823C250.191 175.28 247.354 174.462 244.457 174.462H241.242C239.262 174.462 237.315 174.975 235.593 175.952C233.87 176.928 232.43 178.333 231.412 180.032L229.336 183.497" stroke="#193743" stroke-width="0.759882" stroke-miterlimit="10" stroke-linecap="round"/>
<path d="M109.77 233.803C109.769 231.733 108.947 229.747 107.483 228.284C106.019 226.82 104.034 225.997 101.964 225.997H57.9154C55.8453 225.997 53.8602 226.82 52.3965 228.284C50.9328 229.747 50.1103 231.733 50.1099 233.803V233.863H116.87C119.736 233.863 122.527 234.776 124.838 236.471C127.149 238.165 128.86 240.553 129.721 243.286L66.7756 308.569" stroke="#008760" stroke-width="0.759882" stroke-miterlimit="10" stroke-linecap="round"/>
<path d="M318.546 311.672C320.245 311.672 321.622 310.295 321.622 308.596C321.622 306.897 320.245 305.52 318.546 305.52C316.847 305.52 315.47 306.897 315.47 308.596C315.47 310.295 316.847 311.672 318.546 311.672Z" stroke="#008760" stroke-width="0.759882" stroke-miterlimit="10" stroke-linecap="round"/>
<path d="M176.724 324.045C176.609 332.297 169.873 339.032 161.619 339.149C159.589 339.179 157.572 338.804 155.687 338.047C153.803 337.29 152.087 336.166 150.641 334.74C149.194 333.314 148.045 331.615 147.261 329.741C146.477 327.868 146.074 325.857 146.074 323.826V323.76C146.082 322.978 145.935 322.202 145.642 321.476C145.349 320.751 144.914 320.091 144.365 319.534C143.815 318.977 143.16 318.534 142.439 318.232C141.717 317.929 140.943 317.773 140.16 317.771H66.8666C64.3514 317.771 62.2313 315.795 62.1736 313.278C62.1594 312.665 62.268 312.055 62.4928 311.484C62.7177 310.913 63.0544 310.393 63.4831 309.954C63.9118 309.516 64.4239 309.167 64.9892 308.929C65.5546 308.69 66.1619 308.567 66.7754 308.567H159.951C160.428 308.522 160.911 308.499 161.399 308.499C163.43 308.499 165.441 308.903 167.315 309.687C169.188 310.471 170.887 311.62 172.313 313.066C173.739 314.512 174.864 316.228 175.621 318.113C176.378 319.997 176.753 322.014 176.724 324.045Z" fill="white" stroke="#008760" stroke-width="0.759882" stroke-miterlimit="10" stroke-linecap="round"/>
<path d="M161.399 332.466C166.088 332.466 169.888 328.665 169.888 323.976C169.888 319.288 166.088 315.487 161.399 315.487C156.711 315.487 152.91 319.288 152.91 323.976C152.91 328.665 156.711 332.466 161.399 332.466Z" stroke="#008760" stroke-width="0.759882" stroke-miterlimit="10" stroke-linecap="round"/>
<path d="M161.399 323.976L169.758 345.276C169.889 345.611 170.12 345.9 170.418 346.102C170.716 346.305 171.069 346.413 171.429 346.413H192.262" stroke="#008760" stroke-width="0.759882" stroke-miterlimit="10" stroke-linecap="round"/>
<path d="M66.9212 316.231C68.6201 316.231 69.9972 314.854 69.9972 313.155C69.9972 311.457 68.6201 310.079 66.9212 310.079C65.2224 310.079 63.8452 311.457 63.8452 313.155C63.8452 314.854 65.2224 316.231 66.9212 316.231Z" stroke="#008760" stroke-width="0.759882" stroke-miterlimit="10" stroke-linecap="round"/>
<path d="M192.7 342.782H171.352C170.712 342.782 170.192 343.301 170.192 343.941V345.253C170.192 345.893 170.712 346.412 171.352 346.412H192.7C193.341 346.412 193.86 345.893 193.86 345.253V343.941C193.86 343.301 193.341 342.782 192.7 342.782Z" stroke="#00A878" stroke-width="0.759882" stroke-miterlimit="10"/>
<path d="M138.56 221.056H112.943C111.779 221.056 110.663 220.594 109.84 219.771C109.017 218.948 108.555 217.832 108.555 216.669C108.555 215.505 109.017 214.389 109.84 213.566C110.663 212.743 111.779 212.281 112.943 212.281H150.15C150.302 212.28 150.451 212.325 150.577 212.41C150.703 212.495 150.801 212.616 150.858 212.757C150.915 212.898 150.928 213.053 150.895 213.202C150.863 213.351 150.787 213.486 150.677 213.591L146.061 218.032C144.046 219.972 141.357 221.056 138.56 221.056Z" fill="#00A878"/>
</svg>
