<svg width="215" height="357" viewBox="0 0 215 357" fill="none" xmlns="http://www.w3.org/2000/svg">
<path d="M25.909 356.249H53.6937C54.2691 356.245 54.8242 356.036 55.2591 355.659L59.6627 351.908C59.7825 351.805 59.9269 351.734 60.082 351.702C60.2372 351.671 60.3978 351.68 60.5485 351.728C60.6992 351.777 60.8349 351.863 60.9425 351.979C61.0502 352.095 61.1261 352.237 61.1631 352.391L61.8758 355.357C61.9376 355.612 62.0836 355.84 62.2904 356.003C62.4973 356.166 62.7529 356.254 63.0161 356.254H74.2165C74.3892 356.254 74.5599 356.216 74.7162 356.143C74.8725 356.069 75.0107 355.962 75.1208 355.829C75.231 355.696 75.3103 355.54 75.3533 355.373C75.3963 355.206 75.4017 355.031 75.3693 354.861L71.9534 336.987H43.6686L25.909 356.249Z" fill="#59221D"/>
<path d="M184.83 338.337L201.735 315.948C201.977 315.627 202.097 315.23 202.072 314.828L201.695 308.699C201.685 308.55 201.714 308.401 201.779 308.266C201.843 308.132 201.942 308.016 202.064 307.931C202.186 307.845 202.329 307.792 202.477 307.777C202.626 307.763 202.776 307.786 202.912 307.846L205.611 309.022C205.901 309.148 206.226 309.173 206.533 309.093C206.84 309.012 207.11 308.83 207.301 308.577L213.803 299.964C213.926 299.802 214.012 299.616 214.056 299.417C214.1 299.218 214.101 299.013 214.058 298.814C214.015 298.615 213.929 298.428 213.807 298.265C213.685 298.102 213.529 297.968 213.35 297.871L197.018 289.026L179.381 312.493L184.83 338.337Z" fill="#59221D"/>
<path d="M0.0196991 107.304L2.50035 132.311C3.10963 137.875 5.82791 142.994 10.0961 146.615C14.3642 150.236 19.8578 152.084 25.4468 151.779C31.0359 151.474 36.2955 149.039 40.1439 144.974C43.9923 140.91 46.1369 135.525 46.1367 129.928V116.784C46.1367 119.528 47.2269 122.16 49.1674 124.101C51.108 126.042 53.74 127.132 56.4843 127.132H94.7968C97.1116 127.132 99.3317 126.212 100.969 124.576C102.606 122.939 103.526 120.719 103.527 118.405V102.545C103.527 102.27 103.614 102.002 103.776 101.779C103.938 101.556 104.166 101.39 104.428 101.305C104.69 101.219 104.972 101.219 105.234 101.304C105.497 101.389 105.725 101.555 105.887 101.778L163.652 181.148C162.567 168.588 182.877 159.995 184.7 162.598L124.512 76.5512C121.728 72.5725 118.026 69.3243 113.718 67.0823C109.411 64.8403 104.626 63.6707 99.7706 63.6728H92.6012C91.1386 63.6734 89.7078 63.2465 88.4847 62.4446C87.2615 61.6427 86.2995 60.5007 85.7169 59.1592L84.7167 56.8311H68.2624L67.2371 59.2442C66.6602 60.5981 65.6978 61.7525 64.4697 62.5635C63.2416 63.3745 61.8021 63.8064 60.3303 63.8054H54.7714C46.7677 63.8054 39.0919 66.9848 33.4324 72.6442C27.773 78.3037 24.5936 85.9795 24.5936 93.9832V103.431L4.01573 102.983C3.45953 102.971 2.90712 103.077 2.39503 103.295C1.88295 103.512 1.42285 103.836 1.04514 104.244C0.667419 104.653 0.380692 105.137 0.203918 105.664C0.0271454 106.192 -0.0356445 106.751 0.0196991 107.304Z" fill="#2A9D8E"/>
<path d="M46.1389 116.789V96.4312" stroke="#59221D" stroke-width="1.25032" stroke-linecap="round" stroke-linejoin="round"/>
<path d="M27.9143 108.912L30.9926 123.268" stroke="#59221D" stroke-width="1.25032" stroke-linecap="round" stroke-linejoin="round"/>
<path d="M53.1635 127.622H96.8773V133.956H53.1635V127.622Z" fill="white" stroke="#59221D" stroke-width="1.25032" stroke-linejoin="round"/>
<path d="M57.5796 127.622H92.3711V133.956H57.5796V127.622Z" stroke="#59221D" stroke-width="1.25032" stroke-linejoin="round"/>
<path d="M62.1707 127.622H87.8649V133.956H62.1707V127.622Z" stroke="#59221D" stroke-width="1.25032" stroke-linejoin="round"/>
<path d="M66.6669 127.622H83.3187V133.956H66.6669V127.622Z" stroke="#59221D" stroke-width="1.25032" stroke-linejoin="round"/>
<path d="M71.8709 127.622H78.115V133.956H71.8709V127.622Z" stroke="#59221D" stroke-width="1.25032" stroke-linejoin="round"/>
<path d="M93.944 133.959H57.5645C54.94 133.958 52.4138 134.957 50.4995 136.752C48.5851 138.547 47.4266 141.004 47.2594 143.624L36.039 318.669C35.9292 320.384 36.1723 322.104 36.7533 323.722C37.3343 325.339 38.2408 326.821 39.4167 328.074C40.5927 329.328 42.0132 330.327 43.5905 331.01C45.1678 331.693 46.8684 332.045 48.5872 332.045H69.3026C72.4737 332.045 75.5277 330.847 77.8529 328.691C80.178 326.534 81.6024 323.579 81.8408 320.417L89.0552 224.697C89.0552 224.697 106.37 284.983 166.193 311.22C168.09 312.051 170.213 312.215 172.216 311.685C174.218 311.155 175.982 309.962 177.221 308.301L192.582 287.711C193.798 286.082 194.334 284.045 194.076 282.029C193.818 280.012 192.786 278.175 191.199 276.906C177.763 266.153 145.475 238.086 133.454 207.725C122.404 179.821 111.426 154.274 106.022 141.853C104.996 139.504 103.306 137.506 101.161 136.104C99.0153 134.702 96.5071 133.956 93.944 133.959Z" fill="white" stroke="#59221D" stroke-width="1.25032" stroke-linejoin="round"/>
<path d="M44.2811 332.045H71.3406V337.279H44.2811V332.045Z" fill="white" stroke="#59221D" stroke-width="1.25032" stroke-linejoin="round"/>
<path d="M48.442 332.045V337.279" stroke="#59221D" stroke-width="1.25032" stroke-linejoin="round"/>
<path d="M53.0535 332.045V337.279" stroke="#59221D" stroke-width="1.25032" stroke-linejoin="round"/>
<path d="M57.6621 332.045V337.279" stroke="#59221D" stroke-width="1.25032" stroke-linejoin="round"/>
<path d="M62.2706 332.045V337.279" stroke="#59221D" stroke-width="1.25032" stroke-linejoin="round"/>
<path d="M66.8794 332.045V337.279" stroke="#59221D" stroke-width="1.25032" stroke-linejoin="round"/>
<path d="M176.247 309.555L193.289 286.98L197.422 290.101L180.38 312.675L176.247 309.555Z" fill="white" stroke="#59221D" stroke-width="1.25032" stroke-linejoin="round"/>
<path d="M194.713 293.695L190.582 290.574" stroke="#59221D" stroke-width="1.25032" stroke-linejoin="round"/>
<path d="M191.739 297.561L187.606 294.44" stroke="#59221D" stroke-width="1.25032" stroke-linejoin="round"/>
<path d="M188.766 301.427L184.633 298.306" stroke="#59221D" stroke-width="1.25032" stroke-linejoin="round"/>
<path d="M185.79 305.293L181.659 302.172" stroke="#59221D" stroke-width="1.25032" stroke-linejoin="round"/>
<path d="M183.115 309.156L178.983 306.038" stroke="#59221D" stroke-width="1.25032" stroke-linejoin="round"/>
<path d="M89.0554 224.697C82.7388 212.461 71.6884 176.935 66.1645 176.935" stroke="#59221D" stroke-width="1.25032" stroke-linecap="round" stroke-linejoin="round"/>
<path d="M53.1635 63.8478L102.276 170.823" stroke="#59221D" stroke-width="1.25032" stroke-linecap="round" stroke-linejoin="round"/>
<path d="M108.69 185.712H123.722L118.665 173.281H104.144C103.817 173.283 103.496 173.364 103.208 173.519C102.92 173.673 102.674 173.896 102.492 174.167C102.31 174.438 102.197 174.75 102.163 175.075C102.13 175.4 102.176 175.729 102.299 176.032L105.317 183.451C105.591 184.12 106.059 184.693 106.66 185.095C107.26 185.498 107.967 185.712 108.69 185.712Z" fill="#F5BBBB"/>
<path d="M109.773 183.256H123.449L118.393 170.823H102.271L106.402 180.986C106.675 181.656 107.141 182.23 107.742 182.635C108.342 183.039 109.049 183.255 109.773 183.256V183.256Z" stroke="#59221D" stroke-width="1.25032" stroke-linecap="round" stroke-linejoin="round"/>
<path d="M120.336 175.547H104.217" stroke="#59221D" stroke-width="1.25032" stroke-linecap="round" stroke-linejoin="round"/>
<path d="M163.645 181.151C163.645 181.151 171.789 188.683 184.695 186.615C197.601 184.547 202.125 170.633 200.644 166.292C199.164 161.951 194.143 164.317 194.143 168.265C194.143 168.265 186.518 165.209 184.698 162.606C182.877 160.003 162.559 168.588 163.645 181.151Z" fill="#FFE9BE"/>
<path d="M199.931 171.811C199.931 171.811 198.771 177.205 188.508 173.364" stroke="#59221D" stroke-width="1.25032" stroke-linecap="round" stroke-linejoin="round"/>
<path d="M196.658 178.363C196.658 178.363 194.368 183.266 184.94 179.613" stroke="#59221D" stroke-width="1.25032" stroke-linecap="round" stroke-linejoin="round"/>
<path d="M188.656 184.927C187.068 185.227 183.625 185.747 179.886 184.069" stroke="#59221D" stroke-width="1.25032" stroke-linecap="round" stroke-linejoin="round"/>
<path d="M26.5214 107.663L13.4181 107.652C12.3974 107.651 11.5708 106.823 11.5717 105.802L11.5934 80.8655C11.5943 79.8449 12.4224 79.0182 13.443 79.0191L26.5464 79.0306C27.567 79.0314 28.3937 79.8595 28.3928 80.8802L28.371 105.817C28.3701 106.837 27.5421 107.664 26.5214 107.663Z" fill="#59221D"/>
<path d="M2.30764 103.116C6.74379 112.638 14.7459 114.439 21.0625 113.148L26.2964 112.078C27.8321 111.632 29.1741 110.684 30.1083 109.386C31.0424 108.088 31.5149 106.514 31.4502 104.916L30.8025 89.052C30.7772 88.415 30.5151 87.8104 30.0673 87.3567C29.6195 86.9029 29.0185 86.6326 28.3819 86.5989V88.1743C28.3808 89.191 27.9816 90.1669 27.2697 90.8928C26.5578 91.6187 25.5899 92.0369 24.5734 92.0578L15.5511 92.2428H15.4711C13.3255 92.2428 11.5825 89.9272 11.5825 87.7717L6.28618 87.9692C4.72077 88.0268 2.76775 89.2746 2.5802 91.0725L2.30764 103.116Z" fill="#FFE9BE"/>
<path d="M29.9323 92.1929C30.0673 95.4812 26.2713 96.7666 22.5629 97.1942" stroke="#59221D" stroke-width="1.25032" stroke-miterlimit="10" stroke-linecap="round"/>
<path d="M30.0777 97.2743C30.2127 100.563 26.4167 101.85 22.7082 102.276" stroke="#59221D" stroke-width="1.25032" stroke-miterlimit="10" stroke-linecap="round"/>
<path d="M30.4777 102.546C30.6102 105.834 26.8168 106.944 23.1058 107.369" stroke="#59221D" stroke-width="1.25032" stroke-miterlimit="10" stroke-linecap="round"/>
<path d="M25.1964 83.2656C24.6578 83.2656 24.2211 82.8289 24.2211 82.2903C24.2211 81.7517 24.6578 81.3151 25.1964 81.3151C25.735 81.3151 26.1716 81.7517 26.1716 82.2903C26.1716 82.8289 25.735 83.2656 25.1964 83.2656Z" fill="#98C8DB"/>
<path d="M118.594 56.827H35.8239C35.8239 56.827 29.1681 51.2813 32.4861 43.6739C35.804 36.0665 51.7629 32.3991 51.9467 19.3401C52.1305 6.28116 64.3642 -3.87855 79.0764 1.44415C92.8895 6.4348 87.6394 22.7944 95.0452 27.8644C102.451 32.9343 124.604 34.773 118.594 56.827Z" fill="#59221D"/>
<path d="M68.27 56.8337H84.7142L82.1486 48.2815H70.0529L68.27 56.8337Z" fill="#FFE9BE"/>
<path d="M68.2623 56.8311H70.1178C71.876 56.8308 73.6099 56.4193 75.1808 55.6295C76.7517 54.8397 78.1161 53.6935 79.1651 52.2824L82.1409 48.2814H70.0452L68.2623 56.8311Z" fill="#59221D"/>
<path d="M54.7941 35.2158C56.0586 43.8826 59.1458 55.8032 66.5302 55.8032C74.3395 55.8032 81.477 49.7776 84.3666 46.9506H91.1633C93.0231 46.9008 94.7903 46.1149 96.0884 44.76C97.3866 43.4052 98.113 41.5886 98.113 39.6973C98.113 37.806 97.3866 35.9895 96.0884 34.6346C94.7903 33.2798 93.0231 32.4938 91.1633 32.444H85.7299C85.7299 32.444 65.2707 32.2583 59.126 20.4783C57.3823 22.4598 56.09 24.8079 55.3412 27.3553C54.5924 29.9027 54.4057 32.5866 54.7941 35.2158Z" fill="#FFE9BE"/>
<path d="M88.1457 35.0419C88.1457 34.5169 88.2491 33.997 88.4502 33.512C88.6513 33.027 88.946 32.5863 89.3175 32.2153C89.6889 31.8443 90.1299 31.5502 90.6152 31.3497C91.1005 31.1492 91.6205 31.0463 92.1455 31.047" stroke="#59221D" stroke-width="0.750194" stroke-miterlimit="10" stroke-linecap="round"/>
<path d="M56.1518 32.2393C56.1518 32.2393 60.4345 30.681 62.9406 33.9067C64.5932 36.0307 65.3326 43.2166 64.2656 44.7302" stroke="#59221D" stroke-width="0.750194" stroke-miterlimit="10" stroke-linecap="round"/>
<path d="M72.1062 39.3654C71.3963 39.3654 70.8209 38.5789 70.8209 37.6087C70.8209 36.6384 71.3963 35.8519 72.1062 35.8519C72.816 35.8519 73.3915 36.6384 73.3915 37.6087C73.3915 38.5789 72.816 39.3654 72.1062 39.3654Z" fill="#59221D"/>
<path d="M59.5312 39.3654C58.8213 39.3654 58.2459 38.5789 58.2459 37.6087C58.2459 36.6384 58.8213 35.8519 59.5312 35.8519C60.2411 35.8519 60.8165 36.6384 60.8165 37.6087C60.8165 38.5789 60.2411 39.3654 59.5312 39.3654Z" fill="#59221D"/>
<path d="M64.1565 48.9087C64.1565 48.9087 68.2704 49.7771 70.1116 46.7003" stroke="#59221D" stroke-width="0.750194" stroke-miterlimit="10" stroke-linecap="round"/>
</svg>
