<svg width="13" height="21" viewBox="0 0 13 21" fill="none" xmlns="http://www.w3.org/2000/svg">
<path d="M0.517046 11.6581L9.60585 20.5352C9.75512 20.6825 9.93273 20.7994 10.1284 20.8792C10.3241 20.9589 10.534 21 10.746 21C10.9579 21 11.1678 20.9589 11.3635 20.8792C11.5592 20.7994 11.7368 20.6825 11.8861 20.5352C12.1852 20.2409 12.353 19.8427 12.353 19.4276C12.353 19.0125 12.1852 18.6143 11.8861 18.3199L3.93739 10.464L11.8861 2.68671C12.1852 2.39233 12.353 1.99411 12.353 1.57903C12.353 1.16395 12.1852 0.76573 11.8861 0.471352C11.7374 0.322895 11.56 0.204788 11.3643 0.123878C11.1686 0.0429686 10.9584 0.000863907 10.746 -1.40494e-07C10.5335 0.00086387 10.3233 0.0429686 10.1276 0.123878C9.93192 0.204788 9.75457 0.322895 9.60585 0.471351L0.517046 9.34848C0.35405 9.49561 0.223967 9.67418 0.134994 9.87293C0.0460205 10.0717 8.7721e-05 10.2863 8.7702e-05 10.5033C8.7683e-05 10.7203 0.0460204 10.9349 0.134993 11.1337C0.223966 11.3324 0.35405 11.511 0.517046 11.6581Z" fill="white"/>
</svg>
