<svg width="13" height="21" viewBox="0 0 13 21" fill="none" xmlns="http://www.w3.org/2000/svg">
<path d="M11.836 9.34189L2.74718 0.464751C2.5979 0.317487 2.4203 0.200601 2.22462 0.120835C2.02894 0.0410681 1.81905 0 1.60707 0C1.39508 0 1.1852 0.0410681 0.989516 0.120835C0.793835 0.200601 0.616233 0.317487 0.466953 0.464751C0.167872 0.75913 0 1.15735 0 1.57243C0 1.98751 0.167872 2.38573 0.466953 2.68011L8.41564 10.536L0.466953 18.3133C0.167872 18.6077 0 19.0059 0 19.421C0 19.8361 0.167872 20.2343 0.466953 20.5286C0.615673 20.6771 0.793025 20.7952 0.988732 20.8761C1.18444 20.957 1.39461 20.9991 1.60707 21C1.81953 20.9991 2.0297 20.957 2.2254 20.8761C2.42111 20.7952 2.59846 20.6771 2.74718 20.5286L11.836 11.6515C11.999 11.5044 12.1291 11.3258 12.218 11.1271C12.307 10.9283 12.3529 10.7137 12.3529 10.4967C12.3529 10.2797 12.307 10.0651 12.218 9.86633C12.1291 9.66758 11.999 9.48902 11.836 9.34189Z" fill="white"/>
</svg>
