<svg width="19" height="18" viewBox="0 0 19 18" fill="none" xmlns="http://www.w3.org/2000/svg">
<path d="M9.98739 8.46977L2.62979 1.28351C2.50895 1.1643 2.36517 1.06968 2.20677 1.00511C2.04836 0.940533 1.87845 0.907288 1.70684 0.907288C1.53524 0.907288 1.36533 0.940533 1.20692 1.00511C1.04851 1.06968 0.904739 1.1643 0.783893 1.28351C0.54178 1.52182 0.405884 1.84419 0.405884 2.18021C0.405884 2.51622 0.54178 2.83859 0.783893 3.0769L7.21854 9.43641L0.783893 15.7323C0.54178 15.9706 0.405884 16.293 0.405884 16.629C0.405884 16.965 0.54178 17.2874 0.783893 17.5257C0.904286 17.6459 1.04786 17.7415 1.20629 17.807C1.36472 17.8725 1.53485 17.9066 1.70684 17.9073C1.87883 17.9066 2.04897 17.8725 2.2074 17.807C2.36583 17.7415 2.5094 17.6459 2.62979 17.5257L9.98739 10.3395C10.1193 10.2204 10.2246 10.0758 10.2967 9.91491C10.3687 9.75402 10.4059 9.58027 10.4059 9.40462C10.4059 9.22896 10.3687 9.05522 10.2967 8.89432C10.2246 8.73343 10.1193 8.58887 9.98739 8.46977Z" fill="white"/>
<path opacity="0.3" d="M17.8885 8.46977L10.5309 1.28351C10.4101 1.1643 10.2663 1.06968 10.1079 1.00511C9.94948 0.940533 9.77957 0.907288 9.60797 0.907288C9.43636 0.907288 9.26645 0.940533 9.10804 1.00511C8.94964 1.06968 8.80586 1.1643 8.68502 1.28351C8.4429 1.52182 8.30701 1.84419 8.30701 2.18021C8.30701 2.51622 8.4429 2.83859 8.68502 3.0769L15.1197 9.43641L8.68502 15.7323C8.4429 15.9706 8.30701 16.293 8.30701 16.629C8.30701 16.965 8.4429 17.2874 8.68502 17.5257C8.80541 17.6459 8.94898 17.7415 9.10741 17.807C9.26584 17.8725 9.43598 17.9066 9.60797 17.9073C9.77996 17.9066 9.95009 17.8725 10.1085 17.807C10.267 17.7415 10.4105 17.6459 10.5309 17.5257L17.8885 10.3395C18.0205 10.2204 18.1258 10.0758 18.1978 9.91491C18.2698 9.75402 18.307 9.58027 18.307 9.40462C18.307 9.22896 18.2698 9.05522 18.1978 8.89432C18.1258 8.73343 18.0205 8.58887 17.8885 8.46977Z" fill="white"/>
</svg>
