<svg width="431" height="356" viewBox="0 0 431 356" fill="none" xmlns="http://www.w3.org/2000/svg">
<path d="M14.0111 208.261L1.18737 250.384C-0.524549 256.008 2.97557 261.866 8.63844 263.442C66.6057 279.577 109.068 324.78 126.703 350.656C128.825 353.77 132.674 355.283 136.297 354.248L141.794 352.838L355.009 266.575C357.75 265.466 359.859 263.201 360.771 260.389L429.923 47.1036C431.624 41.8585 428.758 36.2267 423.516 34.514L323.365 1.78762C319.979 0.680967 316.281 1.44093 313.621 3.81177C259.823 51.7708 152.695 146.327 122.216 169.642C93.9025 191.3 48.2795 199.245 23.2992 201.008C19.0074 201.311 15.2642 204.145 14.0111 208.261Z" stroke="#2A9D8E"/>
</svg>
