<svg width="407" height="377" viewBox="0 0 407 377" fill="none" xmlns="http://www.w3.org/2000/svg">
<path d="M2.03122 246.524L4.13739 272.441C4.30904 274.553 5.19704 276.562 6.62595 278.13C44.7831 319.999 61.6676 347.334 83.6923 371.926C86.084 374.596 89.8085 375.617 93.2596 374.632L94.1095 374.389L99.9154 372.902L325.536 281.746C328.153 280.688 330.168 278.53 331.038 275.85L404.533 49.4817C406.155 44.4849 403.419 39.1204 398.415 37.4876L291.13 2.47842C287.893 1.42222 284.369 2.13754 281.829 4.39972C225.157 54.8558 111.511 155.036 79.2381 179.69C48.7042 203.014 27.852 224.095 6.78756 237.316C3.63149 239.297 1.72989 242.816 2.03122 246.524Z" stroke="#2A9D8E" stroke-width="3"/>
</svg>
