<svg width="458" height="377" viewBox="0 0 458 377" fill="none" xmlns="http://www.w3.org/2000/svg">
<path d="M15.1348 220.704L1.18851 266.504C-0.523955 272.127 2.97689 277.988 8.64624 279.542C70.5447 296.516 115.894 344.753 134.691 372.325C136.945 375.632 141.033 377.239 144.881 376.14L150.719 374.642L377.436 282.94C380.177 281.832 382.287 279.567 383.199 276.755L456.922 49.4292C458.623 44.1837 455.757 38.5511 450.515 36.8387L343.22 1.78679C339.834 0.680616 336.144 1.434 333.484 3.80411C276.437 54.6498 162.348 155.331 129.926 180.126C99.6844 203.253 50.8497 211.653 24.4199 213.461C20.1277 213.755 16.3881 216.589 15.1348 220.704Z" stroke="#2A9D8E"/>
</svg>
