<svg width="424" height="393" viewBox="0 0 424 393" fill="none" xmlns="http://www.w3.org/2000/svg">
<path d="M2.03254 257.013L4.22755 284.042C4.40644 286.245 5.33191 288.34 6.82109 289.975C46.5879 333.64 64.1846 362.147 87.1384 387.794C89.631 390.579 93.5126 391.643 97.1093 390.616L97.995 390.363L104.046 388.812L339.184 293.745C341.912 292.643 344.011 290.392 344.918 287.596L421.513 51.5185C423.204 46.3073 420.352 40.7127 415.137 39.0099L303.327 2.49894C299.953 1.39743 296.281 2.14344 293.633 4.50266C234.57 57.123 116.131 161.601 82.4963 187.312C50.6744 211.637 28.9425 233.622 6.98952 247.41C3.70032 249.476 1.71849 253.146 2.03254 257.013Z" stroke="#2A9D8E" stroke-width="3"/>
</svg>
